<svg width="501" height="325" viewBox="0 0 501 325" fill="none" xmlns="http://www.w3.org/2000/svg">
<rect width="500" height="324.735" transform="translate(0.432983)" fill="#FEFCFB"/>
<path d="M332.242 162.361C332.269 178.251 327.643 193.8 318.935 207.091C317.83 208.783 316.664 210.427 315.438 212.021L315.101 212.453C307.456 222.322 297.654 230.311 286.444 235.807C275.235 241.303 262.917 244.16 250.433 244.16C237.949 244.16 225.631 241.303 214.422 235.807C203.213 230.311 193.41 222.322 185.765 212.453L185.428 212.021C184.202 210.427 183.051 208.783 181.974 207.091C174.998 196.427 170.608 184.28 169.157 171.62C167.706 158.959 169.232 146.135 173.614 134.168C177.997 122.202 185.114 111.425 194.399 102.697C203.684 93.968 214.88 87.5292 227.093 83.8935C239.307 80.2579 252.202 79.5258 264.749 81.7558C277.295 83.9858 289.148 89.116 299.361 96.7377C309.574 104.359 317.866 114.261 323.574 125.655C329.283 137.048 332.251 149.618 332.242 162.361V162.361Z" fill="#15616D"/>
<path d="M250.433 245.033C237.816 245.031 225.368 242.141 214.04 236.585C202.713 231.03 192.808 222.955 185.083 212.98L184.746 212.548C183.503 210.933 182.311 209.249 181.206 207.566C173.063 195.092 168.442 180.651 167.831 165.767C167.219 150.884 170.64 136.112 177.733 123.013C184.825 109.914 195.324 98.9744 208.121 91.3507C220.918 83.727 235.537 79.7024 250.433 79.7024C265.329 79.7024 279.948 83.727 292.745 91.3507C305.542 98.9744 316.041 109.914 323.133 123.013C330.225 136.112 333.647 150.884 333.035 165.767C332.424 180.651 327.803 195.092 319.66 207.566C318.555 209.293 317.363 210.925 316.12 212.548L315.783 212.98C308.058 222.955 298.153 231.03 286.825 236.585C275.498 242.141 263.049 245.031 250.433 245.033V245.033ZM250.433 81.4162C235.846 81.4151 221.53 85.3557 208.999 92.8213C196.467 100.287 186.186 111 179.242 123.828C172.298 136.656 168.95 151.122 169.551 165.696C170.152 180.271 174.68 194.412 182.656 206.624C183.736 208.282 184.902 209.923 186.11 211.503L186.447 211.935C190.861 217.632 196.015 222.714 201.774 227.046C215.799 237.605 232.878 243.315 250.433 243.315C267.988 243.315 285.067 237.605 299.091 227.046C304.851 222.714 310.005 217.632 314.419 211.935L314.755 211.503C315.973 209.923 317.13 208.282 318.209 206.624C326.186 194.412 330.714 180.271 331.315 165.696C331.916 151.122 328.568 136.656 321.624 123.828C314.68 111 304.399 100.287 291.867 92.8213C279.336 85.3557 265.02 81.4151 250.433 81.4162V81.4162Z" fill="#001524"/>
<path d="M318.935 207.091C317.83 208.783 316.664 210.427 315.438 212.021L315.101 212.453C307.456 222.322 297.654 230.311 286.444 235.807C275.235 241.303 262.917 244.16 250.433 244.16C237.949 244.16 225.631 241.303 214.422 235.807C203.213 230.311 193.41 222.322 185.765 212.453L185.428 212.021C184.202 210.427 183.051 208.783 181.974 207.091H318.935Z" fill="white"/>
<path d="M250.433 245.033C237.816 245.031 225.368 242.141 214.04 236.585C202.713 231.03 192.808 222.955 185.083 212.98L184.746 212.548C183.503 210.933 182.311 209.249 181.206 207.566C181.13 207.434 181.09 207.285 181.09 207.134C181.09 206.982 181.13 206.833 181.206 206.702C181.28 206.566 181.39 206.452 181.524 206.373C181.658 206.294 181.81 206.253 181.966 206.253H318.935C319.09 206.253 319.243 206.294 319.376 206.373C319.51 206.452 319.62 206.566 319.695 206.702C319.77 206.833 319.81 206.982 319.81 207.134C319.81 207.285 319.77 207.434 319.695 207.566C318.589 209.293 317.398 210.925 316.154 212.548L315.817 212.98C308.089 222.959 298.178 231.037 286.844 236.593C275.511 242.149 263.055 245.036 250.433 245.033V245.033ZM183.546 207.954C184.366 209.154 185.23 210.337 186.136 211.495L186.473 211.926C190.886 217.623 196.041 222.706 201.8 227.038C215.825 237.596 232.904 243.306 250.459 243.306C268.014 243.306 285.092 237.596 299.117 227.038C304.876 222.706 310.031 217.623 314.444 211.926L314.781 211.495C315.668 210.343 316.531 209.163 317.372 207.954H183.546Z" fill="#001524"/>
<path d="M191.067 164.088L181.568 164.347C181.568 164.347 175.956 173.284 174.868 172.119C173.78 170.953 176.716 158.449 178.123 158.432C179.531 158.415 189.15 156.083 189.15 156.083L191.067 164.088Z" fill="#FFC9B0"/>
<path d="M175.144 173.12C174.982 173.12 174.821 173.086 174.673 173.02C174.524 172.955 174.391 172.86 174.281 172.74C172.838 171.195 175.239 162.111 176.336 159.572C176.767 158.544 177.294 157.603 178.166 157.595C179.038 157.586 185.316 156.17 188.995 155.272C189.105 155.245 189.22 155.24 189.333 155.257C189.445 155.275 189.553 155.315 189.65 155.374C189.747 155.433 189.831 155.511 189.898 155.603C189.965 155.696 190.013 155.8 190.039 155.911L191.913 163.915C191.943 164.04 191.944 164.169 191.918 164.294C191.891 164.42 191.837 164.537 191.759 164.639C191.681 164.74 191.582 164.824 191.468 164.882C191.355 164.941 191.229 164.973 191.102 164.977L182.095 165.228C180.161 168.276 176.914 172.948 175.282 173.112L175.144 173.12ZM178.391 159.304C177.311 160.556 175.386 168.63 175.507 171.1C176.647 170.098 179.03 166.843 180.869 163.907C180.944 163.786 181.049 163.686 181.172 163.615C181.296 163.544 181.435 163.505 181.577 163.501L189.979 163.268L188.546 157.18C186.188 157.724 180.075 159.166 178.391 159.313V159.304Z" fill="#001524"/>
<path d="M246.167 163.173C246.167 163.173 254.699 148.562 242.419 142.656C230.14 136.75 189.184 156.109 189.184 156.109L191.067 164.114L246.167 163.173Z" fill="#FFECD1"/>
<path d="M191.067 164.952C190.867 164.956 190.672 164.892 190.515 164.769C190.357 164.646 190.247 164.473 190.203 164.278L188.347 156.317C188.303 156.124 188.325 155.922 188.412 155.745C188.498 155.567 188.643 155.425 188.822 155.341C190.506 154.538 230.27 135.877 242.791 141.887C244.34 142.548 245.729 143.534 246.864 144.778C247.999 146.022 248.854 147.495 249.371 149.098C251.417 155.781 247.1 163.294 246.918 163.613C246.844 163.742 246.737 163.85 246.608 163.926C246.48 164.001 246.334 164.042 246.184 164.045L191.084 164.952H191.067ZM190.203 156.567L191.715 163.225L245.649 162.361C246.513 160.738 249.284 154.754 247.713 149.633C247.261 148.263 246.522 147.005 245.545 145.943C244.568 144.881 243.376 144.04 242.048 143.476C237.238 141.162 226.678 142.734 211.497 148.027C201.55 151.446 192.578 155.453 190.186 156.593L190.203 156.567Z" fill="#001524"/>
<path d="M246.167 163.173L242.42 142.656L264.802 138.399C271.71 138.209 275.518 143.58 275.699 150.488C275.699 150.488 276.865 161.584 266.149 162.024L246.167 163.173Z" fill="#FFECD1"/>
<path d="M246.167 164.036C245.963 164.04 245.764 163.97 245.606 163.841C245.448 163.711 245.341 163.529 245.304 163.328L241.556 142.811C241.516 142.588 241.564 142.358 241.692 142.171C241.82 141.983 242.016 141.854 242.238 141.81L264.629 137.544H264.767C266.394 137.442 268.021 137.721 269.521 138.36C271.02 138.999 272.349 139.979 273.402 141.223C275.466 143.85 276.572 147.104 276.537 150.445C276.537 150.6 277.063 155.859 273.946 159.52C272.141 161.61 269.534 162.732 266.175 162.871L246.21 164.036H246.167ZM243.421 143.312L246.875 162.232L266.088 161.1C268.938 160.988 271.123 160.064 272.599 158.354C275.285 155.272 274.844 150.583 274.836 150.514C274.867 147.545 273.903 144.651 272.098 142.293C271.213 141.262 270.102 140.448 268.852 139.915C267.602 139.381 266.245 139.144 264.888 139.219L243.421 143.312Z" fill="#001524"/>
<path d="M302.364 140.238C307.534 140.238 311.724 136.047 311.724 130.878C311.724 125.708 307.534 121.517 302.364 121.517C297.194 121.517 293.004 125.708 293.004 130.878C293.004 136.047 297.194 140.238 302.364 140.238Z" fill="#725858"/>
<path d="M302.364 141.102C301.528 141.1 300.696 140.995 299.886 140.791V140.791C297.368 140.155 295.189 138.582 293.791 136.394C292.393 134.206 291.882 131.568 292.363 129.016C292.843 126.464 294.279 124.192 296.377 122.663C298.475 121.133 301.078 120.462 303.654 120.785C306.23 121.108 308.586 122.402 310.241 124.402C311.897 126.402 312.727 128.959 312.562 131.55C312.398 134.141 311.251 136.572 309.356 138.347C307.461 140.122 304.96 141.107 302.364 141.102V141.102ZM300.309 139.116C301.939 139.523 303.654 139.438 305.236 138.871C306.818 138.304 308.197 137.281 309.197 135.931C310.198 134.58 310.775 132.963 310.857 131.285C310.938 129.606 310.52 127.941 309.655 126.5C308.791 125.059 307.518 123.907 305.998 123.189C304.478 122.471 302.78 122.221 301.118 122.468C299.455 122.716 297.904 123.451 296.659 124.581C295.415 125.71 294.533 127.183 294.126 128.814C293.58 131 293.925 133.313 295.084 135.245C296.244 137.177 298.123 138.569 300.309 139.116Z" fill="#001524"/>
<path d="M299.057 159.278C302.874 160.487 306.189 154.598 307.364 151.844C309.246 147.422 309.954 142.345 307.968 137.829C306.779 134.899 304.713 132.408 302.053 130.696C298.953 128.848 295.275 128.84 291.769 128.969C280.742 129.297 276.355 135.955 276.355 135.955C277.03 140.419 279.02 144.58 282.072 147.906C285.603 151.628 290.258 154.382 294.662 156.93C295.995 157.751 297.373 158.498 298.789 159.166C298.876 159.21 298.965 159.247 299.057 159.278V159.278Z" fill="#725858"/>
<path d="M300.059 160.306C299.631 160.303 299.206 160.236 298.798 160.107C298.666 160.066 298.536 160.017 298.409 159.961C297.309 159.454 296.241 158.877 295.214 158.234C294.886 158.035 294.558 157.836 294.23 157.655C290.197 155.315 285.18 152.405 281.45 148.476C278.253 145.02 276.17 140.681 275.475 136.024C275.453 135.824 275.502 135.622 275.613 135.454C275.803 135.169 280.388 128.425 291.726 128.08C295.551 127.968 299.256 128.028 302.477 129.954C305.286 131.762 307.472 134.391 308.737 137.484C310.593 141.715 310.378 146.939 308.141 152.163C306.475 156.127 303.452 160.306 300.059 160.306ZM277.254 136.128C277.976 140.278 279.866 144.136 282.702 147.25C286.26 151.006 291.156 153.838 295.094 156.127L296.104 156.714C297.067 157.321 298.068 157.866 299.1 158.346L299.316 158.424C302.304 159.365 305.361 154.287 306.57 151.516C308.02 148.113 309.298 143.045 307.174 138.192C306.053 135.426 304.109 133.071 301.604 131.448C298.781 129.721 295.353 129.721 291.795 129.816C282.59 130.083 278.177 134.997 277.254 136.162V136.128Z" fill="#001524"/>
<path d="M271.58 144.823C271.744 141.318 273.817 138.218 276.355 135.929C277.676 134.738 280.362 134.358 282.4 134.988C286.208 136.188 289.921 140.808 291.7 141.836C291.7 141.836 290.836 145.739 291.147 147.578C292.011 152.284 298.306 159.27 299.065 159.322L284.973 158.648C277.245 158.277 271.2 152.707 271.58 144.823Z" fill="#FFC9B0"/>
<path d="M299.04 160.185H298.997L284.973 159.512C276.468 159.106 270.345 152.776 270.725 144.78C270.881 141.456 272.677 138.088 275.786 135.282C277.297 133.917 280.31 133.425 282.642 134.159C285.336 135.023 287.823 137.319 289.852 139.176C290.556 139.87 291.312 140.508 292.114 141.084C292.275 141.176 292.402 141.317 292.477 141.486C292.552 141.656 292.57 141.845 292.529 142.026C292.287 143.062 291.726 146.049 291.976 147.414C292.745 151.619 298.314 157.879 299.282 158.475C299.511 158.506 299.718 158.627 299.858 158.811C299.998 158.994 300.059 159.226 300.028 159.455C299.998 159.684 299.877 159.892 299.693 160.032C299.509 160.172 299.277 160.233 299.048 160.202L299.04 160.185ZM280.293 135.592C279.089 135.539 277.902 135.902 276.934 136.62C274.171 139.098 272.616 142.043 272.444 144.901C272.098 152.034 277.4 157.465 285.042 157.854L296.596 158.406C294.161 155.816 290.871 151.101 290.267 147.802C290.131 145.954 290.279 144.096 290.707 142.293C290.137 141.87 289.463 141.248 288.669 140.523C286.787 138.796 284.438 136.62 282.115 135.886C281.526 135.695 280.912 135.596 280.293 135.592V135.592Z" fill="#001524"/>
<path d="M287.512 155.177C288.232 155.177 288.816 154.593 288.816 153.873C288.816 153.153 288.232 152.569 287.512 152.569C286.792 152.569 286.208 153.153 286.208 153.873C286.208 154.593 286.792 155.177 287.512 155.177Z" fill="#001524"/>
<path d="M286.994 157.586C286.994 157.586 281.001 160.634 280.82 159.771C280.742 158.734 280.774 157.692 280.915 156.662" fill="#FFC9B0"/>
<path d="M281.105 160.755C280.911 160.76 280.718 160.719 280.543 160.634C280.398 160.564 280.271 160.461 280.172 160.334C280.074 160.207 280.005 160.058 279.974 159.9C279.872 158.772 279.901 157.636 280.06 156.515C280.088 156.286 280.207 156.078 280.389 155.936C280.479 155.866 280.582 155.814 280.693 155.784C280.803 155.754 280.918 155.745 281.031 155.76C281.145 155.774 281.254 155.81 281.354 155.867C281.453 155.923 281.54 155.999 281.61 156.089C281.68 156.179 281.732 156.282 281.762 156.392C281.793 156.503 281.801 156.618 281.787 156.731C281.696 157.467 281.647 158.208 281.64 158.95C283.355 158.369 285.021 157.653 286.622 156.809C286.827 156.706 287.065 156.688 287.283 156.76C287.501 156.832 287.681 156.988 287.784 157.193C287.887 157.398 287.904 157.636 287.832 157.853C287.76 158.071 287.605 158.251 287.4 158.354C283.436 160.358 281.83 160.755 281.105 160.755Z" fill="#001524"/>
<path d="M290.793 143.044C290.793 143.044 296.233 139.539 292.296 137C289.282 135.074 282.978 136.041 284.222 141.784" fill="#FFC9B0"/>
<path d="M290.793 143.908C290.607 143.907 290.426 143.847 290.277 143.735C290.128 143.623 290.019 143.466 289.967 143.288C289.914 143.109 289.921 142.918 289.986 142.744C290.051 142.569 290.17 142.42 290.327 142.319C290.983 141.896 292.865 140.393 292.865 139.15C292.865 138.969 292.865 138.416 291.838 137.76C290.985 137.261 290.015 136.999 289.027 136.999C288.039 136.999 287.069 137.261 286.216 137.76C285.068 138.563 284.679 139.867 285.068 141.637C285.117 141.866 285.073 142.105 284.946 142.302C284.819 142.499 284.619 142.637 284.39 142.686C284.161 142.735 283.922 142.692 283.725 142.564C283.528 142.437 283.39 142.237 283.341 142.008C282.624 138.701 284.204 137.043 285.198 136.344C286.332 135.653 287.634 135.287 288.962 135.287C290.291 135.287 291.593 135.653 292.727 136.344C293.257 136.615 293.705 137.021 294.027 137.522C294.348 138.022 294.532 138.599 294.558 139.193C294.558 141.594 291.57 143.597 291.225 143.813C291.092 143.882 290.943 143.914 290.793 143.908Z" fill="#001524"/>
<path d="M291.562 158.432C291.141 158.436 290.734 158.286 290.416 158.011C290.098 157.736 289.891 157.355 289.835 156.938L289.04 151.179C289.01 150.952 289.024 150.721 289.082 150.5C289.141 150.279 289.242 150.071 289.381 149.889C289.52 149.707 289.693 149.554 289.891 149.439C290.089 149.324 290.307 149.249 290.534 149.219C290.761 149.188 290.991 149.202 291.213 149.261C291.434 149.319 291.642 149.421 291.824 149.56C292.006 149.698 292.158 149.871 292.274 150.069C292.389 150.267 292.464 150.486 292.494 150.712L293.297 156.463C293.329 156.689 293.316 156.918 293.259 157.138C293.202 157.358 293.102 157.564 292.964 157.746C292.827 157.927 292.655 158.08 292.459 158.194C292.263 158.309 292.046 158.384 291.821 158.415L291.562 158.432Z" fill="#001524"/>
<path d="M276.088 155.989C275.923 155.987 275.762 155.938 275.625 155.847C275.487 155.757 275.378 155.629 275.311 155.479C275.259 155.358 274.076 152.457 278.765 149.435C278.957 149.325 279.183 149.293 279.398 149.346C279.613 149.399 279.799 149.532 279.919 149.718C280.038 149.904 280.082 150.128 280.041 150.346C280 150.563 279.877 150.756 279.697 150.885C276.355 153.035 276.899 154.711 276.925 154.78C276.976 154.911 276.994 155.053 276.977 155.192C276.961 155.332 276.91 155.466 276.83 155.581C276.75 155.697 276.643 155.792 276.518 155.857C276.393 155.922 276.254 155.955 276.114 155.954L276.088 155.989Z" fill="#001524"/>
<path d="M321.508 153.251L320.489 153.001C320.299 153.312 320.834 153.545 320.998 153.864C321.057 154.015 321.056 154.182 320.995 154.331C320.933 154.481 320.817 154.601 320.67 154.667C320.374 154.796 320.047 154.835 319.729 154.78C317.847 154.615 316.154 153.597 314.306 153.458C313.374 153.389 306.474 153.743 304.022 153.717C300.309 153.717 296.32 153.985 292.632 153.484L270.38 150.462C269.609 150.372 268.866 150.115 268.205 149.707C267.544 149.3 266.98 148.753 266.553 148.104C266.126 147.456 265.846 146.722 265.733 145.954C265.62 145.185 265.676 144.402 265.898 143.658C266.995 139.893 270.414 139.97 271.606 140.065L294.549 145.609C305.542 146.326 318.391 145.54 327.466 152.914C327.66 153.044 327.813 153.227 327.907 153.441C327.939 153.653 327.892 153.869 327.773 154.048C327.655 154.227 327.475 154.355 327.268 154.408C326.845 154.499 326.406 154.472 325.998 154.331L321.508 153.251Z" fill="#FFC9B0"/>
<path d="M320.066 155.652C319.902 155.652 319.764 155.652 319.66 155.652C318.666 155.534 317.689 155.299 316.75 154.952C315.943 154.648 315.102 154.442 314.246 154.339C313.831 154.339 311.828 154.339 309.928 154.451C307.77 154.529 305.309 154.615 304.048 154.598C302.96 154.598 301.855 154.598 300.741 154.598C298.009 154.717 295.273 154.627 292.555 154.331L270.294 151.308C269.406 151.196 268.553 150.896 267.791 150.428C267.029 149.961 266.375 149.337 265.872 148.597C265.354 147.851 265.016 146.995 264.882 146.096C264.749 145.198 264.825 144.28 265.104 143.416C265.967 140.428 268.325 138.943 271.71 139.202H271.848L294.713 144.728C296.44 144.832 298.167 144.91 299.989 144.987C309.92 145.402 320.187 145.851 328.045 152.215C328.375 152.45 328.626 152.782 328.761 153.165C328.821 153.356 328.841 153.557 328.82 153.756C328.8 153.955 328.738 154.147 328.64 154.322C328.403 154.74 328.013 155.049 327.552 155.185C326.981 155.317 326.386 155.296 325.825 155.125L321.94 154.192C321.931 154.28 321.913 154.367 321.888 154.451C321.756 154.849 321.478 155.183 321.111 155.384C320.79 155.56 320.431 155.652 320.066 155.652V155.652ZM313.909 152.578H314.375C315.372 152.697 316.352 152.932 317.294 153.277C318.104 153.582 318.948 153.791 319.807 153.899H319.902C319.726 153.722 319.615 153.49 319.589 153.242C319.562 152.994 319.621 152.745 319.755 152.534C319.85 152.378 319.993 152.256 320.162 152.187C320.331 152.117 320.518 152.103 320.696 152.146L321.707 152.388L326.197 153.467C326.44 153.541 326.694 153.576 326.948 153.571C319.539 147.526 309.557 147.138 299.903 146.732C298.124 146.654 296.276 146.576 294.523 146.464H294.377L271.502 140.938C268.972 140.765 267.383 141.801 266.753 143.917C266.548 144.538 266.49 145.197 266.583 145.845C266.675 146.492 266.917 147.109 267.289 147.647C267.652 148.181 268.123 148.632 268.672 148.971C269.221 149.31 269.835 149.53 270.475 149.616L292.745 152.621C295.374 152.904 298.021 152.988 300.663 152.871C301.803 152.871 302.925 152.871 304.022 152.871C305.257 152.871 307.683 152.802 309.816 152.724C311.785 152.629 313.166 152.578 313.909 152.578Z" fill="#001524"/>
<path d="M243.784 205.536L243.879 215.035C243.879 215.035 252.419 218.437 251.236 219.508C250.053 220.579 236.271 219.611 236.289 218.195C236.306 216.779 235.745 205.916 235.745 205.916L243.784 205.536Z" fill="#FFC9B0"/>
<path d="M247.575 220.751C246.711 220.751 245.675 220.751 244.535 220.656C241.617 220.484 237.964 220.06 236.453 219.387C235.771 219.076 235.417 218.644 235.425 218.109C235.425 216.736 234.89 206.02 234.89 205.882C234.883 205.767 234.9 205.652 234.939 205.544C234.977 205.436 235.037 205.336 235.114 205.251C235.269 205.084 235.483 204.985 235.71 204.975L243.749 204.63C243.865 204.626 243.981 204.645 244.089 204.686C244.198 204.728 244.296 204.791 244.38 204.871C244.463 204.951 244.529 205.046 244.575 205.151C244.621 205.256 244.646 205.37 244.647 205.485L244.742 214.37C249.483 216.304 251.996 217.824 252.195 218.981C252.233 219.179 252.219 219.384 252.154 219.575C252.088 219.765 251.975 219.936 251.823 220.069C251.296 220.527 249.889 220.751 247.575 220.751ZM237.152 217.815C238.724 218.618 247.281 219.301 250.018 218.921C247.967 217.671 245.805 216.613 243.559 215.76C243.4 215.697 243.263 215.587 243.166 215.446C243.07 215.304 243.017 215.137 243.015 214.966L242.929 206.4L236.651 206.659C236.781 209.111 237.118 215.95 237.152 217.815Z" fill="#001524"/>
<path d="M225.918 152.319C216.972 159.693 227.11 173.759 230.78 186.531C234.061 197.955 235.745 205.839 235.745 205.839L243.784 205.493C243.784 205.493 246.185 191.453 246.185 182.55C246.185 176.091 244.337 166.143 243.309 158.7" fill="#FFECD1"/>
<path d="M235.753 206.702C235.553 206.707 235.356 206.641 235.199 206.516C235.041 206.392 234.932 206.216 234.89 206.02C234.89 205.934 233.163 198.024 229.933 186.764C228.85 183.282 227.581 179.861 226.134 176.514C222.101 166.713 218.302 157.465 225.357 151.654C225.535 151.525 225.755 151.468 225.973 151.496C226.191 151.524 226.39 151.634 226.53 151.803C226.67 151.973 226.739 152.189 226.725 152.409C226.711 152.628 226.614 152.833 226.453 152.983C220.409 157.992 223.949 166.67 227.731 175.858C229.204 179.263 230.492 182.745 231.591 186.289C234.285 195.675 235.909 202.747 236.418 204.941L243.024 204.664C243.499 201.737 245.304 190.166 245.304 182.55C245.304 177.783 244.25 170.901 243.326 164.831C243.007 162.732 242.696 160.695 242.463 158.786C242.433 158.56 242.495 158.33 242.634 158.149C242.773 157.968 242.979 157.849 243.205 157.819C243.431 157.79 243.659 157.85 243.84 157.987C244.021 158.125 244.14 158.328 244.173 158.553C244.432 160.427 244.742 162.447 245.036 164.537C245.969 170.677 247.031 177.628 247.031 182.524C247.031 191.401 244.639 205.476 244.613 205.614C244.58 205.808 244.481 205.985 244.333 206.115C244.186 206.246 243.998 206.322 243.801 206.331L235.771 206.668L235.753 206.702Z" fill="#001524"/>
<path d="M271.563 157.465C271.563 157.465 269.965 162.439 265.138 163.112C261.183 163.656 257.919 160.03 257.919 160.03" fill="#FFECD1"/>
<path d="M264.31 164.028C260.406 164.028 257.401 160.755 257.272 160.574C257.189 160.49 257.125 160.391 257.082 160.282C257.039 160.173 257.018 160.057 257.022 159.939C257.026 159.822 257.053 159.707 257.102 159.601C257.152 159.495 257.223 159.4 257.31 159.321C257.398 159.243 257.5 159.184 257.611 159.147C257.722 159.11 257.84 159.095 257.957 159.105C258.073 159.115 258.187 159.148 258.291 159.203C258.394 159.258 258.485 159.334 258.559 159.425C258.559 159.425 261.581 162.707 265.018 162.232C269.24 161.644 270.682 157.361 270.743 157.171C270.774 157.06 270.829 156.956 270.902 156.865C270.975 156.775 271.065 156.701 271.168 156.646C271.27 156.591 271.383 156.558 271.498 156.548C271.614 156.538 271.73 156.552 271.841 156.588C271.951 156.624 272.053 156.681 272.141 156.758C272.228 156.834 272.299 156.927 272.35 157.032C272.401 157.136 272.43 157.25 272.435 157.366C272.441 157.482 272.423 157.598 272.383 157.707C272.314 157.931 270.561 163.199 265.259 163.941C264.945 163.991 264.628 164.02 264.31 164.028V164.028Z" fill="#001524"/>
</svg>
