<svg width="501" height="325" viewBox="0 0 501 325" fill="none" xmlns="http://www.w3.org/2000/svg">
<rect width="500" height="324.735" transform="translate(0.432983 0.264526)" fill="#FEFCFB"/>
<path d="M326.535 162.218C326.535 204.734 292.069 239.2 249.553 239.2C207.037 239.2 172.571 204.734 172.571 162.218C172.571 119.702 207.037 85.2358 249.553 85.2358C292.069 85.2358 326.535 119.702 326.535 162.218Z" fill="#FF7D00" stroke="black"/>
<path d="M244.308 177.838C241.296 175.903 234.721 169.242 232.786 172.254C222.696 187.983 209.295 205.434 205.371 208.226C205.371 208.226 200.275 204.475 199.26 204.852C197.074 205.678 199.897 209.138 199.897 209.138C197.231 208.69 191.789 208.501 192.882 212.968C193.732 216.437 204.632 217.687 205.465 217.687C210.97 217.687 218.512 212.827 228.673 199.394C235.35 190.563 241.005 182.368 241.256 181.99C243.222 179.01 247.335 179.773 244.308 177.838Z" fill="#FFC9B0"/>
<path d="M205.504 218.497C205.379 218.497 193.181 217.514 192.135 213.157C191.929 212.553 191.883 211.905 192.003 211.277C192.123 210.65 192.404 210.065 192.819 209.579C194.101 208.203 196.492 208.006 198.324 208.163C197.805 207.357 197.598 206.39 197.742 205.442C197.828 205.135 197.988 204.853 198.209 204.622C198.43 204.392 198.705 204.22 199.008 204.121C199.905 203.783 202.044 204.837 205.379 207.267C209.791 203.594 222.68 186.583 232.118 171.877C232.296 171.587 232.536 171.339 232.82 171.15C233.103 170.961 233.425 170.836 233.761 170.784C236.011 170.406 239.266 172.986 242.113 175.251C243.104 176.037 244.032 176.776 244.724 177.225C245.511 177.704 246.203 178.239 246.156 179.018C246.109 179.796 245.369 180.087 244.654 180.433C243.567 180.836 242.624 181.55 241.94 182.486C241.72 182.84 236.081 191.019 229.357 199.937C219.999 212.237 211.985 218.497 205.504 218.497ZM197.373 209.705C195.949 209.705 194.604 209.956 193.959 210.648C193.727 210.946 193.577 211.299 193.521 211.673C193.466 212.046 193.509 212.427 193.645 212.78C194.282 215.383 203.869 216.924 205.504 216.924C211.466 216.924 219.063 210.876 228.083 198.946C234.807 190.059 240.407 181.935 240.627 181.589C241.466 180.398 242.64 179.484 244.001 178.963L244.331 178.805C244.221 178.727 244.08 178.624 243.883 178.499C243.096 178.011 242.161 177.248 241.146 176.438C238.928 174.684 235.586 172.018 234.021 172.286C233.903 172.304 233.791 172.349 233.692 172.417C233.594 172.485 233.513 172.575 233.455 172.679C223.38 188.353 209.948 205.938 205.819 208.855C205.685 208.952 205.524 209.004 205.359 209.004C205.194 209.004 205.033 208.952 204.899 208.855C202.823 207.282 200.18 205.71 199.472 205.607C199.276 205.694 199.252 205.796 199.237 205.851C199.063 206.472 199.897 207.88 200.511 208.635C200.611 208.759 200.671 208.91 200.684 209.068C200.697 209.227 200.661 209.386 200.581 209.524C200.503 209.659 200.387 209.767 200.247 209.836C200.107 209.905 199.949 209.93 199.795 209.909C198.994 209.775 198.184 209.706 197.373 209.705V209.705Z" fill="#050505"/>
<path d="M203.546 214.722H203.468C201.47 214.518 200.102 213.81 199.378 212.615C199.077 212.032 198.902 211.393 198.866 210.738C198.829 210.083 198.931 209.428 199.166 208.816C199.204 208.72 199.261 208.632 199.333 208.558C199.405 208.484 199.491 208.425 199.586 208.384C199.681 208.343 199.783 208.321 199.886 208.32C199.989 208.318 200.092 208.337 200.188 208.376C200.284 208.414 200.372 208.471 200.446 208.543C200.52 208.615 200.579 208.701 200.62 208.796C200.661 208.89 200.683 208.993 200.684 209.096C200.686 209.199 200.667 209.302 200.629 209.398C200.48 209.786 200.412 210.2 200.43 210.616C200.447 211.031 200.55 211.438 200.731 211.812C201.179 212.552 202.154 213.008 203.625 213.157C203.728 213.162 203.829 213.188 203.923 213.232C204.016 213.276 204.1 213.339 204.17 213.415C204.239 213.492 204.292 213.582 204.327 213.679C204.362 213.776 204.377 213.88 204.372 213.983C204.367 214.086 204.341 214.187 204.297 214.281C204.253 214.374 204.191 214.458 204.114 214.527C204.037 214.597 203.948 214.65 203.85 214.685C203.753 214.72 203.65 214.735 203.546 214.73V214.722Z" fill="#050505"/>
<path d="M256.954 177.838C259.966 175.903 266.54 169.242 268.467 172.254C278.565 187.983 291.966 205.434 295.89 208.226C295.89 208.226 300.987 204.475 302.001 204.852C304.187 205.678 301.364 209.138 301.364 209.138C304.03 208.69 309.472 208.501 308.379 212.968C307.53 216.437 296.63 217.687 295.757 217.687C290.252 217.687 282.71 212.827 272.549 199.394C265.872 190.563 260.217 182.368 259.966 181.99C258.039 179.01 253.942 179.773 256.954 177.838Z" fill="#FFC9B0"/>
<path d="M295.757 218.497C289.276 218.497 281.263 212.206 271.92 199.89C265.196 190.995 259.533 182.793 259.337 182.439C258.652 181.504 257.709 180.791 256.623 180.386C255.876 180.04 255.176 179.718 255.121 178.97C255.066 178.223 255.798 177.657 256.553 177.177C257.245 176.729 258.173 175.99 259.164 175.203C262.026 172.938 265.266 170.367 267.516 170.736C267.852 170.789 268.173 170.914 268.457 171.103C268.741 171.292 268.98 171.539 269.159 171.83C278.597 186.56 291.518 203.57 295.898 207.22C299.233 204.813 301.403 203.759 302.269 204.074C302.572 204.172 302.847 204.345 303.068 204.575C303.289 204.806 303.449 205.087 303.535 205.395C303.679 206.343 303.472 207.31 302.953 208.116C304.769 207.998 307.168 208.155 308.458 209.532C308.873 210.017 309.154 210.603 309.274 211.23C309.394 211.858 309.348 212.505 309.142 213.11C308.08 217.514 295.875 218.497 295.757 218.497ZM256.93 178.805L257.26 178.963C258.621 179.484 259.795 180.398 260.634 181.589C260.854 181.935 266.477 190.083 273.217 198.946C282.238 210.877 289.835 216.924 295.796 216.924C297.44 216.924 307.019 215.351 307.656 212.78C307.792 212.428 307.834 212.046 307.779 211.673C307.724 211.299 307.573 210.946 307.341 210.648C306.327 209.555 303.574 209.571 301.529 209.917C301.371 209.944 301.209 209.922 301.064 209.854C300.919 209.785 300.798 209.675 300.718 209.536C300.638 209.398 300.601 209.238 300.614 209.078C300.627 208.919 300.688 208.767 300.79 208.643C301.403 207.857 302.237 206.48 302.064 205.859C302.064 205.804 302.025 205.702 301.828 205.615C301.12 205.686 298.478 207.33 296.402 208.863C296.268 208.96 296.107 209.012 295.942 209.012C295.776 209.012 295.615 208.96 295.482 208.863C291.353 205.93 277.92 188.345 267.846 172.687C267.788 172.583 267.706 172.493 267.608 172.425C267.51 172.357 267.398 172.312 267.28 172.294C265.707 172.026 262.372 174.692 260.154 176.446C259.14 177.232 258.173 178.019 257.418 178.506C257.182 178.624 257.04 178.727 256.93 178.805Z" fill="#050505"/>
<path d="M297.715 214.722C297.506 214.733 297.302 214.66 297.147 214.52C296.993 214.38 296.9 214.184 296.889 213.975C296.879 213.767 296.952 213.562 297.092 213.407C297.232 213.253 297.428 213.16 297.636 213.149C299.107 213 300.082 212.544 300.531 211.804C300.71 211.43 300.812 211.023 300.829 210.608C300.847 210.193 300.78 209.778 300.633 209.39C300.594 209.294 300.575 209.191 300.577 209.088C300.578 208.985 300.6 208.883 300.641 208.788C300.682 208.693 300.741 208.607 300.815 208.535C300.889 208.463 300.977 208.406 301.073 208.368C301.266 208.293 301.481 208.297 301.671 208.379C301.861 208.462 302.011 208.616 302.088 208.808C302.326 209.419 302.432 210.074 302.396 210.729C302.361 211.385 302.186 212.025 301.883 212.607C301.16 213.802 299.791 214.51 297.794 214.714L297.715 214.722Z" fill="#050505"/>
<path d="M291.29 220.597C291.29 220.597 278.156 223.813 270.52 212.638H230.655C223.019 223.813 209.877 220.597 209.877 220.597L251.158 235.909L291.29 220.597Z" fill="#FFECD1"/>
<path d="M251.158 236.695C251.066 236.695 250.976 236.679 250.89 236.648L209.586 221.336C209.399 221.266 209.245 221.127 209.156 220.948C209.067 220.769 209.05 220.562 209.109 220.371C209.167 220.179 209.296 220.017 209.469 219.918C209.643 219.818 209.848 219.788 210.042 219.834C210.561 219.96 222.751 222.775 229.979 212.19C230.052 212.085 230.149 211.999 230.263 211.94C230.377 211.881 230.503 211.851 230.631 211.852H270.496C270.624 211.851 270.751 211.881 270.864 211.94C270.978 211.999 271.076 212.085 271.149 212.19C278.376 222.775 290.566 219.96 291.085 219.834C291.276 219.796 291.474 219.829 291.642 219.929C291.809 220.028 291.934 220.186 291.991 220.372C292.049 220.558 292.036 220.758 291.954 220.935C291.873 221.112 291.728 221.252 291.549 221.328L251.441 236.648C251.35 236.681 251.254 236.697 251.158 236.695ZM215.288 221.753L251.158 235.06L286.013 221.8C281.388 221.611 274.79 220.031 270.111 213.456H231.064C226.432 219.944 219.904 221.549 215.288 221.8V221.753Z" fill="#050505"/>
<path d="M192.426 228.689C192.426 230.135 192.711 231.567 193.264 232.903C193.817 234.239 194.628 235.452 195.651 236.475C196.673 237.497 197.887 238.308 199.223 238.862C200.559 239.415 201.99 239.7 203.436 239.7H241.303V227.525L204.867 217.805C203.317 217.602 201.74 217.731 200.244 218.185C198.747 218.638 197.364 219.405 196.187 220.435C195.009 221.465 194.065 222.734 193.417 224.157C192.768 225.58 192.431 227.125 192.426 228.689V228.689Z" fill="#FFECD1"/>
<path d="M241.288 240.47H203.42C201.782 240.509 200.153 240.206 198.638 239.58C197.123 238.954 195.755 238.019 194.622 236.835C193.488 235.652 192.614 234.244 192.054 232.704C191.495 231.163 191.262 229.523 191.372 227.887C191.482 226.252 191.931 224.657 192.691 223.205C193.452 221.753 194.506 220.475 195.788 219.453C197.069 218.432 198.55 217.688 200.135 217.27C201.72 216.852 203.375 216.769 204.993 217.026H205.096L241.524 226.755C241.695 226.801 241.846 226.904 241.952 227.046C242.057 227.189 242.112 227.364 242.106 227.541V239.7C242.104 239.804 242.081 239.907 242.038 240.003C241.996 240.099 241.935 240.185 241.859 240.257C241.782 240.329 241.693 240.385 241.595 240.421C241.497 240.458 241.392 240.475 241.288 240.47V240.47ZM203.42 218.497C202.023 218.402 200.62 218.595 199.3 219.065C197.98 219.534 196.771 220.27 195.747 221.227C194.723 222.183 193.907 223.34 193.349 224.625C192.791 225.91 192.503 227.296 192.503 228.697C192.503 230.098 192.791 231.484 193.349 232.77C193.907 234.055 194.723 235.211 195.747 236.168C196.771 237.124 197.98 237.86 199.3 238.33C200.62 238.799 202.023 238.993 203.42 238.897H240.501V228.131L204.71 218.576C204.282 218.522 203.852 218.496 203.42 218.497V218.497Z" fill="#050505"/>
<path d="M240.981 168.409H260.194C263.016 168.409 265.722 169.53 267.718 171.525C269.713 173.521 270.834 176.227 270.834 179.049V204.789H230.34V179.049C230.34 176.227 231.461 173.521 233.457 171.525C235.452 169.53 238.159 168.409 240.981 168.409Z" fill="#FFECD1"/>
<path d="M270.834 205.568H230.34C230.132 205.568 229.932 205.485 229.784 205.338C229.637 205.19 229.554 204.99 229.554 204.782V179.049C229.556 176.018 230.76 173.112 232.903 170.968C235.045 168.825 237.95 167.618 240.981 167.614H260.194C263.224 167.618 266.13 168.825 268.272 170.968C270.414 173.112 271.619 176.018 271.621 179.049V204.782C271.621 204.885 271.6 204.987 271.561 205.083C271.521 205.178 271.463 205.265 271.39 205.338C271.317 205.411 271.231 205.469 271.135 205.508C271.04 205.548 270.938 205.568 270.834 205.568ZM231.127 203.995H270.048V179.049C270.046 176.436 269.007 173.929 267.16 172.081C265.313 170.232 262.807 169.191 260.194 169.187H240.981C238.367 169.191 235.862 170.232 234.015 172.081C232.168 173.929 231.129 176.436 231.127 179.049V203.995Z" fill="#050505"/>
<path d="M232.196 137.957C241.348 137.957 248.767 130.539 248.767 121.387C248.767 112.236 241.348 104.817 232.196 104.817C223.045 104.817 215.626 112.236 215.626 121.387C215.626 130.539 223.045 137.957 232.196 137.957Z" fill="#6B5151"/>
<path d="M232.196 138.744C228.763 138.744 225.408 137.726 222.553 135.819C219.699 133.912 217.474 131.201 216.161 128.029C214.847 124.858 214.503 121.368 215.173 118.001C215.843 114.634 217.496 111.541 219.923 109.114C222.351 106.687 225.443 105.034 228.81 104.364C232.177 103.694 235.667 104.038 238.838 105.351C242.01 106.665 244.721 108.89 246.628 111.744C248.535 114.598 249.553 117.954 249.553 121.387C249.549 125.989 247.719 130.401 244.465 133.656C241.211 136.91 236.798 138.74 232.196 138.744V138.744ZM232.196 105.611C229.074 105.611 226.022 106.537 223.426 108.272C220.831 110.006 218.808 112.472 217.613 115.357C216.419 118.241 216.107 121.415 216.716 124.477C217.326 127.539 218.83 130.352 221.038 132.559C223.246 134.766 226.06 136.268 229.122 136.877C232.184 137.485 235.358 137.171 238.242 135.975C241.126 134.779 243.591 132.755 245.324 130.158C247.057 127.562 247.982 124.509 247.98 121.387C247.976 117.203 246.312 113.191 243.352 110.234C240.393 107.276 236.38 105.613 232.196 105.611V105.611Z" fill="#050505"/>
<path d="M249.821 111.863C256.13 111.863 262.181 114.37 266.643 118.831C271.104 123.293 273.611 129.344 273.611 135.653V151.508H226.023V135.661C226.022 132.536 226.637 129.441 227.832 126.553C229.028 123.665 230.781 121.041 232.991 118.831C235.201 116.621 237.825 114.868 240.712 113.673C243.6 112.477 246.695 111.862 249.821 111.863V111.863Z" fill="#6B5151"/>
<path d="M273.611 152.302H226.023C225.814 152.302 225.614 152.219 225.467 152.072C225.319 151.924 225.236 151.724 225.236 151.516V135.661C225.178 132.396 225.771 129.152 226.98 126.119C228.189 123.085 229.99 120.323 232.278 117.994C234.566 115.664 237.296 113.814 240.307 112.551C243.318 111.288 246.551 110.637 249.817 110.637C253.082 110.637 256.315 111.288 259.326 112.551C262.337 113.814 265.067 115.664 267.355 117.994C269.643 120.323 271.445 123.085 272.654 126.119C273.863 129.152 274.455 132.396 274.397 135.661V151.516C274.397 151.724 274.314 151.924 274.167 152.072C274.019 152.219 273.819 152.302 273.611 152.302ZM226.809 150.729H272.824V135.661C272.881 132.604 272.327 129.566 271.196 126.725C270.066 123.884 268.38 121.297 266.238 119.115C264.096 116.933 261.54 115.2 258.721 114.017C255.901 112.834 252.874 112.224 249.817 112.224C246.759 112.224 243.732 112.834 240.912 114.017C238.093 115.2 235.538 116.933 233.395 119.115C231.253 121.297 229.568 123.884 228.437 126.725C227.306 129.566 226.753 132.604 226.809 135.661V150.729Z" fill="#050505"/>
<path d="M247.131 167.536H254.044V171.468C254.044 172.246 253.735 172.992 253.185 173.542C252.635 174.092 251.888 174.401 251.11 174.401H250.064C249.286 174.401 248.54 174.092 247.99 173.542C247.44 172.992 247.131 172.246 247.131 171.468V167.536Z" fill="#FFC9B0"/>
<path d="M251.11 175.196H250.064C249.078 175.196 248.132 174.804 247.434 174.106C246.736 173.408 246.344 172.462 246.344 171.476V167.536C246.344 167.327 246.427 167.127 246.575 166.979C246.722 166.832 246.922 166.749 247.131 166.749H254.044C254.252 166.749 254.452 166.832 254.6 166.979C254.747 167.127 254.83 167.327 254.83 167.536V171.468C254.83 172.455 254.439 173.402 253.741 174.101C253.044 174.8 252.098 175.193 251.11 175.196V175.196ZM247.917 168.322V171.468C247.919 172.037 248.146 172.581 248.549 172.984C248.951 173.386 249.496 173.613 250.064 173.615H251.11C251.679 173.613 252.224 173.386 252.626 172.984C253.028 172.581 253.255 172.037 253.257 171.468V168.322H247.917Z" fill="#050505"/>
<path d="M230.844 155.338C234.553 155.338 237.56 152.746 237.56 149.55C237.56 146.353 234.553 143.761 230.844 143.761C227.134 143.761 224.127 146.353 224.127 149.55C224.127 152.746 227.134 155.338 230.844 155.338Z" fill="#FFC9B0"/>
<path d="M230.82 156.124C226.683 156.124 223.317 153.175 223.317 149.55C223.317 145.924 226.683 142.983 230.82 142.983C234.957 142.983 238.315 145.924 238.315 149.55C238.315 153.175 234.972 156.124 230.82 156.124ZM230.82 144.556C227.548 144.556 224.89 146.797 224.89 149.55C224.89 152.302 227.548 154.551 230.82 154.551C234.092 154.551 236.742 152.31 236.742 149.55C236.742 146.789 234.107 144.556 230.82 144.556Z" fill="#050505"/>
<path d="M269.977 155.338C273.687 155.338 276.693 152.746 276.693 149.55C276.693 146.353 273.687 143.761 269.977 143.761C266.268 143.761 263.261 146.353 263.261 149.55C263.261 152.746 266.268 155.338 269.977 155.338Z" fill="#FFC9B0"/>
<path d="M269.977 156.124C265.84 156.124 262.474 153.175 262.474 149.55C262.474 145.924 265.84 142.983 269.977 142.983C274.114 142.983 277.472 145.924 277.472 149.55C277.472 153.175 274.114 156.124 269.977 156.124ZM269.977 144.556C266.705 144.556 264.047 146.797 264.047 149.55C264.047 152.302 266.705 154.551 269.977 154.551C273.249 154.551 275.899 152.31 275.899 149.55C275.899 146.789 273.241 144.556 269.977 144.556Z" fill="#050505"/>
<path d="M250.583 168.409C245.214 168.406 240.065 166.272 236.269 162.474C232.473 158.677 230.34 153.527 230.34 148.158V138.783C230.34 133.923 237.764 124.832 242.632 124.832C242.632 124.832 243.419 129.432 251.071 133.483C256.427 136.298 263.969 136.487 270.834 131.713V148.181C270.828 153.548 268.692 158.693 264.895 162.485C261.098 166.278 255.95 168.409 250.583 168.409V168.409Z" fill="#FFC9B0"/>
<path d="M250.583 169.187C245.008 169.181 239.663 166.963 235.72 163.021C231.778 159.078 229.56 153.733 229.554 148.158V138.783C229.554 133.577 237.245 124.045 242.632 124.045C242.82 124.043 243.002 124.107 243.146 124.226C243.29 124.346 243.387 124.513 243.419 124.698C243.419 124.698 244.3 129 251.449 132.767C255.978 135.126 263.332 135.913 270.394 131.045C270.509 130.967 270.642 130.921 270.78 130.911C270.918 130.902 271.056 130.929 271.18 130.99C271.309 131.056 271.416 131.156 271.491 131.28C271.566 131.403 271.605 131.545 271.605 131.689V148.158C271.599 153.732 269.382 159.076 265.442 163.018C261.501 166.96 256.158 169.179 250.583 169.187V169.187ZM242.058 125.673C238.063 126.373 231.127 133.868 231.127 138.783V148.158C231.229 153.251 233.325 158.101 236.963 161.667C240.601 165.233 245.493 167.231 250.587 167.231C255.682 167.231 260.573 165.233 264.212 161.667C267.85 158.101 269.945 153.251 270.048 148.158V133.137C267.187 134.961 263.902 136.015 260.513 136.194C257.124 136.373 253.747 135.672 250.709 134.159C244.488 130.879 242.617 127.191 242.058 125.673Z" fill="#050505"/>
<path d="M250.481 152.302C249.857 152.299 249.233 152.246 248.617 152.145C248.515 152.127 248.418 152.089 248.331 152.033C248.244 151.978 248.169 151.905 248.11 151.821C248.051 151.736 248.009 151.64 247.986 151.54C247.964 151.439 247.962 151.334 247.98 151.233C247.998 151.131 248.036 151.034 248.092 150.947C248.147 150.859 248.22 150.784 248.304 150.725C248.389 150.666 248.485 150.624 248.586 150.602C248.686 150.58 248.791 150.577 248.892 150.596C249.734 150.74 250.593 150.761 251.441 150.659C251.144 149.193 250.613 147.786 249.868 146.49C249.817 146.399 249.785 146.298 249.773 146.194C249.762 146.089 249.771 145.984 249.801 145.884C249.831 145.783 249.881 145.69 249.948 145.609C250.014 145.528 250.096 145.461 250.189 145.412C250.282 145.363 250.384 145.334 250.488 145.325C250.593 145.316 250.698 145.328 250.797 145.36C250.897 145.393 250.989 145.444 251.069 145.513C251.148 145.581 251.213 145.665 251.26 145.759C252.093 147.332 253.407 150.218 252.833 151.445C252.761 151.612 252.654 151.76 252.517 151.88C252.381 152 252.22 152.087 252.046 152.137C251.533 152.255 251.007 152.31 250.481 152.302Z" fill="#050505"/>
<path d="M236.105 141.064C235.688 141.064 235.288 140.898 234.993 140.603C234.698 140.308 234.532 139.908 234.532 139.491C234.532 139.074 234.698 138.674 234.993 138.379C235.288 138.084 235.688 137.918 236.105 137.918L245.047 137.8C245.464 137.8 245.864 137.966 246.159 138.261C246.454 138.556 246.62 138.956 246.62 139.373C246.62 139.79 246.454 140.19 246.159 140.485C245.864 140.78 245.464 140.946 245.047 140.946L236.105 141.064Z" fill="#050505"/>
<path d="M265.887 140.899L256.946 140.844C256.528 140.844 256.128 140.678 255.833 140.383C255.538 140.088 255.373 139.688 255.373 139.271C255.373 138.854 255.538 138.454 255.833 138.159C256.128 137.864 256.528 137.698 256.946 137.698L265.887 137.753C266.305 137.753 266.705 137.919 267 138.214C267.295 138.509 267.46 138.909 267.46 139.326C267.46 139.743 267.295 140.143 267 140.438C266.705 140.733 266.305 140.899 265.887 140.899Z" fill="#050505"/>
<path d="M239.589 146.561C238.49 146.57 237.401 146.345 236.396 145.9C236.296 145.86 236.205 145.799 236.129 145.722C236.053 145.645 235.994 145.553 235.956 145.452C235.917 145.351 235.9 145.243 235.905 145.135C235.91 145.027 235.937 144.921 235.984 144.824C236.032 144.727 236.099 144.641 236.182 144.571C236.264 144.501 236.36 144.449 236.464 144.418C236.568 144.387 236.676 144.377 236.784 144.39C236.891 144.403 236.995 144.438 237.088 144.493C238.116 144.914 239.235 145.063 240.337 144.925C241.439 144.787 242.487 144.367 243.38 143.706C243.464 143.646 243.559 143.604 243.66 143.581C243.76 143.557 243.865 143.554 243.966 143.572C244.068 143.589 244.166 143.626 244.253 143.681C244.341 143.735 244.417 143.807 244.477 143.891C244.537 143.975 244.579 144.07 244.602 144.171C244.626 144.272 244.629 144.376 244.612 144.478C244.594 144.58 244.557 144.677 244.502 144.765C244.448 144.852 244.376 144.928 244.292 144.988C242.929 145.996 241.283 146.546 239.589 146.561Z" fill="#050505"/>
<path d="M262.128 146.561C260.429 146.549 258.777 145.999 257.41 144.988C257.24 144.867 257.125 144.684 257.09 144.478C257.055 144.272 257.104 144.061 257.225 143.891C257.346 143.721 257.529 143.606 257.735 143.572C257.941 143.537 258.152 143.585 258.322 143.706C259.215 144.368 260.263 144.787 261.365 144.925C262.467 145.063 263.586 144.914 264.614 144.493C264.707 144.438 264.81 144.403 264.918 144.39C265.025 144.377 265.134 144.387 265.238 144.418C265.341 144.449 265.437 144.501 265.52 144.571C265.602 144.641 265.669 144.727 265.717 144.824C265.765 144.921 265.792 145.027 265.797 145.135C265.802 145.243 265.785 145.351 265.746 145.452C265.707 145.553 265.648 145.645 265.573 145.722C265.497 145.799 265.406 145.86 265.306 145.901C264.305 146.343 263.222 146.568 262.128 146.561V146.561Z" fill="#050505"/>
<path d="M250.89 159.168C248.62 159.156 246.357 158.916 244.134 158.452C244.031 158.432 243.933 158.392 243.845 158.333C243.758 158.274 243.683 158.199 243.625 158.11C243.568 158.022 243.528 157.923 243.51 157.82C243.491 157.716 243.493 157.61 243.516 157.507C243.54 157.404 243.583 157.307 243.645 157.221C243.706 157.136 243.784 157.064 243.874 157.009C243.964 156.954 244.064 156.918 244.168 156.902C244.272 156.887 244.379 156.892 244.48 156.919C244.559 156.919 251.991 158.57 256.655 156.683C256.845 156.619 257.052 156.63 257.233 156.714C257.415 156.797 257.559 156.947 257.634 157.133C257.709 157.318 257.711 157.526 257.638 157.712C257.566 157.899 257.425 158.051 257.245 158.138C255.21 158.877 253.054 159.227 250.89 159.168V159.168Z" fill="#050505"/>
<path d="M269.183 204.782H231.984V212.567H269.183V204.782Z" fill="#FFC9B0"/>
<path d="M269.183 213.33H231.984C231.775 213.33 231.575 213.247 231.428 213.1C231.28 212.952 231.198 212.752 231.198 212.544V204.75C231.198 204.542 231.28 204.342 231.428 204.194C231.575 204.047 231.775 203.964 231.984 203.964H269.183C269.391 203.964 269.591 204.047 269.739 204.194C269.886 204.342 269.969 204.542 269.969 204.75V212.544C269.969 212.647 269.949 212.749 269.909 212.845C269.87 212.94 269.812 213.027 269.739 213.1C269.666 213.173 269.579 213.231 269.484 213.27C269.388 213.31 269.286 213.33 269.183 213.33V213.33ZM232.739 211.82H268.436V205.529H232.739V211.82Z" fill="#050505"/>
<path d="M304.746 228.689C304.746 230.135 304.461 231.567 303.908 232.903C303.354 234.239 302.543 235.452 301.521 236.475C300.499 237.497 299.285 238.308 297.949 238.862C296.613 239.415 295.181 239.7 293.736 239.7H225.747C224.807 239.714 223.895 239.376 223.192 238.751C222.489 238.127 222.045 237.261 221.949 236.326C221.887 235.49 222.117 234.659 222.599 233.974C223.08 233.289 223.784 232.791 224.591 232.567L243.254 224.506C243.407 224.441 243.575 224.419 243.74 224.443C243.905 224.467 244.06 224.534 244.19 224.639L248.775 228.21L255.853 227.541L292.281 217.821C293.832 217.614 295.409 217.74 296.908 218.191C298.407 218.642 299.792 219.407 300.971 220.436C302.151 221.464 303.098 222.732 303.749 224.156C304.399 225.579 304.739 227.124 304.746 228.689Z" fill="#FFC9B0"/>
<path d="M293.736 240.47H225.747C224.607 240.487 223.502 240.074 222.653 239.314C221.803 238.553 221.271 237.5 221.163 236.365C221.089 235.361 221.36 234.362 221.933 233.534C222.505 232.705 223.343 232.098 224.308 231.812L242.923 223.774C243.208 223.648 243.523 223.605 243.831 223.648C244.139 223.691 244.43 223.819 244.669 224.018L248.995 227.376L255.727 226.747L292.108 217.081H292.21C293.829 216.824 295.483 216.907 297.068 217.325C298.653 217.743 300.134 218.486 301.415 219.508C302.697 220.53 303.752 221.808 304.512 223.26C305.272 224.712 305.721 226.307 305.831 227.942C305.941 229.578 305.709 231.218 305.149 232.759C304.59 234.299 303.715 235.707 302.582 236.891C301.448 238.074 300.08 239.009 298.565 239.635C297.05 240.261 295.421 240.564 293.783 240.525L293.736 240.47ZM243.592 225.205H243.545L224.89 233.266H224.788C224.155 233.444 223.603 233.834 223.225 234.372C222.847 234.909 222.666 235.56 222.712 236.216C222.792 236.954 223.148 237.636 223.707 238.125C224.266 238.615 224.989 238.876 225.732 238.858H293.736C295.156 238.898 296.569 238.641 297.885 238.103C299.201 237.566 300.39 236.76 301.377 235.738C302.363 234.715 303.126 233.498 303.616 232.164C304.106 230.83 304.313 229.409 304.223 227.991C304.133 226.572 303.748 225.189 303.093 223.927C302.439 222.666 301.528 221.555 300.42 220.666C299.312 219.776 298.03 219.127 296.657 218.761C295.284 218.394 293.85 218.318 292.446 218.536L256.073 228.249H255.939L248.861 228.91C248.663 228.926 248.467 228.867 248.311 228.744L243.726 225.182C243.685 225.178 243.644 225.186 243.608 225.205H243.592Z" fill="#050505"/>
<path d="M304.746 228.689C304.746 230.135 304.461 231.567 303.908 232.903C303.354 234.239 302.543 235.452 301.521 236.475C300.499 237.497 299.285 238.308 297.949 238.862C296.613 239.415 295.181 239.7 293.736 239.7H255.884V227.525L292.312 217.805C293.862 217.603 295.438 217.733 296.934 218.187C298.429 218.641 299.811 219.409 300.988 220.438C302.164 221.468 303.107 222.737 303.755 224.159C304.403 225.582 304.741 227.126 304.746 228.689Z" fill="#FFECD1"/>
<path d="M293.736 240.47H255.884C255.675 240.47 255.475 240.387 255.328 240.24C255.18 240.092 255.098 239.892 255.098 239.684V227.525C255.092 227.348 255.146 227.174 255.251 227.031C255.357 226.888 255.508 226.785 255.68 226.739L292.108 217.081H292.21C293.829 216.824 295.483 216.907 297.068 217.325C298.653 217.743 300.134 218.486 301.415 219.508C302.697 220.53 303.752 221.808 304.512 223.26C305.272 224.712 305.722 226.307 305.831 227.942C305.941 229.578 305.709 231.218 305.149 232.759C304.59 234.299 303.715 235.707 302.582 236.891C301.448 238.074 300.08 239.009 298.565 239.635C297.05 240.261 295.421 240.564 293.783 240.525L293.736 240.47ZM256.655 238.897H293.736C295.156 238.937 296.569 238.68 297.885 238.143C299.201 237.605 300.39 236.8 301.377 235.777C302.363 234.755 303.126 233.537 303.616 232.204C304.106 230.87 304.313 229.448 304.223 228.03C304.133 226.612 303.748 225.228 303.094 223.967C302.439 222.705 301.528 221.595 300.42 220.705C299.312 219.815 298.03 219.166 296.657 218.8C295.284 218.433 293.85 218.357 292.446 218.576L256.655 228.131V238.897Z" fill="#050505"/>
<path d="M332.318 240.47H168.636C168.427 240.47 168.227 240.387 168.08 240.24C167.932 240.093 167.849 239.892 167.849 239.684C167.849 239.475 167.932 239.275 168.08 239.128C168.227 238.98 168.427 238.897 168.636 238.897H332.318C332.527 238.897 332.727 238.98 332.875 239.128C333.022 239.275 333.105 239.475 333.105 239.684C333.105 239.892 333.022 240.093 332.875 240.24C332.727 240.387 332.527 240.47 332.318 240.47Z" fill="#050505"/>
<path d="M173.528 228.257C173.528 228.257 167.826 216.633 168.62 208.785C168.62 208.785 173.205 210.861 175.415 216.979C178.789 226.33 178.01 228.265 178.01 228.265L173.528 228.257Z" fill="#70CC40"/>
<path d="M178.01 229.051H173.528C173.382 229.05 173.239 229.008 173.115 228.93C172.991 228.853 172.892 228.742 172.828 228.611C172.584 228.123 167.032 216.696 167.842 208.714C167.853 208.589 167.894 208.47 167.961 208.364C168.028 208.259 168.119 208.171 168.227 208.108C168.335 208.045 168.456 208.009 168.58 208.002C168.705 207.995 168.829 208.018 168.943 208.069C169.147 208.163 173.866 210.357 176.154 216.72C179.465 225.89 178.891 228.194 178.742 228.564C178.682 228.708 178.581 228.832 178.451 228.919C178.32 229.006 178.167 229.052 178.01 229.051ZM174.031 227.478H177.342C177.342 226.464 177.027 223.68 174.707 217.255C173.705 214.398 171.839 211.924 169.367 210.177C169.242 216.72 173.087 225.426 174.031 227.47V227.478Z" fill="#050505"/>
<path d="M176.241 227.691C176.241 227.691 171.963 211.12 178.113 200.031C178.113 200.031 181.659 204.082 182.509 213.896C182.951 218.565 182.062 223.263 179.945 227.447L176.241 227.691Z" fill="#70CC40"/>
<path d="M176.241 228.477C176.062 228.483 175.887 228.427 175.744 228.32C175.601 228.213 175.499 228.06 175.455 227.887C175.274 227.203 171.168 210.884 177.405 199.646C177.466 199.535 177.553 199.441 177.659 199.371C177.764 199.302 177.885 199.258 178.01 199.245C178.135 199.233 178.261 199.251 178.377 199.298C178.493 199.344 178.597 199.418 178.679 199.512C178.836 199.685 182.407 203.877 183.264 213.826C183.739 218.656 182.814 223.521 180.598 227.84C180.534 227.951 180.444 228.045 180.336 228.114C180.228 228.182 180.104 228.223 179.977 228.233L176.272 228.477H176.241ZM178.215 201.557C173.74 210.994 176.194 223.876 176.854 226.865L179.458 226.692C181.331 222.716 182.113 218.313 181.723 213.936C181.133 207.188 179.245 203.256 178.215 201.557V201.557Z" fill="#050505"/>
<path d="M178.128 227.172C178.128 227.172 179.458 216.114 188.399 208.895C188.399 208.895 191.034 217.137 183.641 228.147L178.128 227.172Z" fill="#70CC40"/>
<path d="M183.633 228.933H183.5L177.995 227.958C177.796 227.923 177.618 227.813 177.498 227.651C177.377 227.488 177.325 227.286 177.35 227.085C177.405 226.621 178.813 215.627 187.904 208.289C188.003 208.209 188.12 208.155 188.244 208.13C188.369 208.106 188.498 208.111 188.62 208.147C188.742 208.183 188.854 208.249 188.946 208.338C189.038 208.427 189.107 208.537 189.146 208.659C189.257 209.013 191.812 217.388 184.294 228.595C184.22 228.701 184.121 228.788 184.006 228.847C183.891 228.906 183.763 228.936 183.633 228.933ZM179.025 226.574L183.264 227.36C188.423 219.425 188.25 213.008 187.88 210.428C181.384 216.177 179.45 224.112 178.993 226.519L179.025 226.574Z" fill="#050505"/>
<path d="M184.216 239.597H172.961L171.294 225.905H185.875L184.216 239.597Z" fill="#F56132"/>
<path d="M184.215 240.384H172.961C172.768 240.385 172.581 240.316 172.436 240.188C172.291 240.06 172.198 239.884 172.175 239.692L170.508 226C170.494 225.889 170.505 225.776 170.538 225.67C170.572 225.563 170.627 225.465 170.702 225.382C170.776 225.298 170.868 225.232 170.97 225.187C171.072 225.141 171.182 225.118 171.294 225.119H185.875C185.986 225.118 186.096 225.141 186.198 225.186C186.299 225.23 186.39 225.296 186.465 225.379C186.54 225.462 186.596 225.561 186.63 225.668C186.664 225.775 186.675 225.888 186.661 226L184.994 239.692C184.971 239.882 184.879 240.058 184.736 240.185C184.592 240.313 184.407 240.383 184.215 240.384ZM173.661 238.811H183.516L184.994 226.692H172.183L173.661 238.811Z" fill="#050505"/>
<path d="M311.084 224.27H325.24V234.957C325.24 236.209 324.743 237.409 323.858 238.294C322.973 239.179 321.773 239.676 320.522 239.676H315.803C314.552 239.676 313.351 239.179 312.466 238.294C311.581 237.409 311.084 236.209 311.084 234.957V224.27Z" fill="#FFBC0E"/>
<path d="M320.522 240.47H315.803C314.343 240.47 312.943 239.89 311.911 238.858C310.878 237.826 310.298 236.425 310.298 234.965V224.27C310.298 224.061 310.381 223.861 310.528 223.714C310.676 223.566 310.876 223.483 311.085 223.483H325.241C325.449 223.483 325.649 223.566 325.797 223.714C325.944 223.861 326.027 224.061 326.027 224.27V234.965C326.027 236.425 325.447 237.826 324.415 238.858C323.382 239.89 321.982 240.47 320.522 240.47V240.47ZM311.871 225.056V234.965C311.871 236.008 312.285 237.008 313.023 237.746C313.76 238.483 314.76 238.897 315.803 238.897H320.522C321.565 238.897 322.565 238.483 323.302 237.746C324.04 237.008 324.454 236.008 324.454 234.965V225.056H311.871Z" fill="#050505"/>
<path d="M327.403 234.729H325.248C325.04 234.729 324.84 234.646 324.692 234.499C324.545 234.352 324.462 234.151 324.462 233.943V226.928C324.462 226.719 324.545 226.519 324.692 226.372C324.84 226.224 325.04 226.141 325.248 226.141H327.403C328.542 226.141 329.634 226.594 330.44 227.399C331.245 228.204 331.697 229.297 331.697 230.435C331.697 231.574 331.245 232.666 330.44 233.472C329.634 234.277 328.542 234.729 327.403 234.729V234.729ZM326.035 233.156H327.403C327.761 233.156 328.114 233.086 328.445 232.949C328.775 232.813 329.075 232.612 329.327 232.359C329.58 232.107 329.78 231.807 329.917 231.477C330.054 231.147 330.124 230.793 330.124 230.435C330.124 230.078 330.054 229.724 329.917 229.394C329.78 229.064 329.58 228.764 329.327 228.511C329.075 228.259 328.775 228.058 328.445 227.921C328.114 227.785 327.761 227.714 327.403 227.714H326.035V233.156Z" fill="#050505"/>
</svg>
