<svg width="501" height="326" viewBox="0 0 501 326" fill="none" xmlns="http://www.w3.org/2000/svg">
<rect width="500" height="324.735" transform="translate(0.433105 0.735474)" fill="#FEFCFB"/>
<path d="M332.605 163.103C332.605 208.486 295.815 245.275 250.433 245.275C205.051 245.275 168.261 208.486 168.261 163.103C168.261 117.721 205.051 80.9313 250.433 80.9313C295.815 80.9313 332.605 117.721 332.605 163.103Z" fill="#78290F" stroke="black"/>
<path d="M202.584 222.75H297.875L319.449 244.928H181.01L202.584 222.75Z" fill="white"/>
<path d="M319.449 245.775H181.044C180.879 245.776 180.716 245.728 180.578 245.637C180.44 245.546 180.331 245.416 180.267 245.263C180.202 245.111 180.184 244.943 180.215 244.78C180.246 244.617 180.324 244.467 180.44 244.349L202.022 222.171C202.1 222.089 202.194 222.024 202.298 221.979C202.402 221.934 202.513 221.911 202.626 221.911H297.875C297.988 221.911 298.1 221.934 298.204 221.979C298.307 222.024 298.401 222.089 298.479 222.171L320.053 244.34C320.169 244.459 320.247 244.609 320.278 244.771C320.309 244.934 320.291 245.102 320.226 245.255C320.162 245.407 320.053 245.537 319.915 245.629C319.777 245.72 319.614 245.768 319.449 245.767V245.775ZM182.999 244.097H317.46L297.523 223.597H202.937L182.999 244.097Z" fill="#001524"/>
<path d="M281.067 227.449C281.067 227.449 277.753 235.16 278.651 235.966C279.548 236.771 296.667 237.493 296.75 235.966C296.834 234.439 288.896 231.77 287.94 231.032C286.983 230.293 287.94 227.449 287.94 227.449H281.067Z" fill="#FFC9B0"/>
<path d="M289.391 237.694C284.466 237.694 278.852 237.275 278.088 236.587C277.719 236.26 276.746 235.378 280.304 227.113C280.369 226.964 280.475 226.838 280.611 226.748C280.746 226.659 280.905 226.611 281.067 226.61H287.94C288.072 226.609 288.203 226.64 288.321 226.7C288.439 226.76 288.541 226.847 288.619 226.954C288.697 227.061 288.749 227.186 288.769 227.317C288.79 227.448 288.779 227.583 288.737 227.709C288.384 228.8 288.242 230.117 288.46 230.369C289.19 230.753 289.94 231.095 290.709 231.393C295.626 233.49 297.674 234.598 297.59 236.016C297.565 236.266 297.465 236.502 297.303 236.694C297.141 236.885 296.925 237.024 296.683 237.09C295.66 237.51 292.647 237.694 289.391 237.694ZM279.322 235.345C281.445 235.932 292.748 236.318 295.584 235.689C293.822 234.607 291.965 233.686 290.038 232.937C289.133 232.603 288.26 232.19 287.428 231.703C286.488 230.998 286.589 229.429 286.841 228.288H281.621C280.446 231.107 279.339 234.33 279.33 235.345H279.322Z" fill="#001524"/>
<path d="M215.901 224.579C215.901 224.579 210.673 230.453 208.643 231.93C206.612 233.407 203.054 235.932 203.054 237.015C203.054 238.097 204.011 238.928 206.285 238.45C208.559 237.971 210.824 236.889 212.494 236.771C214.164 236.654 215.247 237.25 216.203 236.536C217.16 235.823 217.277 232.467 217.881 231.753C218.486 231.04 222.153 228.263 222.153 228.263L217.764 223.379L215.901 224.579Z" fill="#FFC9B0"/>
<path d="M205.093 239.423C204.359 239.464 203.634 239.244 203.046 238.802C202.78 238.587 202.566 238.315 202.421 238.005C202.275 237.695 202.202 237.357 202.207 237.015C202.207 236.016 203.18 234.758 208.148 231.242C210.078 229.882 215.213 224.084 215.263 224.025C215.318 223.97 215.377 223.92 215.44 223.874L217.294 222.674C217.463 222.566 217.665 222.522 217.863 222.549C218.062 222.577 218.244 222.675 218.377 222.825L222.765 227.701C222.842 227.787 222.901 227.888 222.937 227.997C222.973 228.107 222.986 228.223 222.975 228.338C222.964 228.453 222.929 228.565 222.873 228.666C222.816 228.767 222.74 228.856 222.648 228.926C221.211 229.972 219.83 231.092 218.511 232.282C218.317 232.793 218.173 233.321 218.083 233.86C217.798 235.211 217.496 236.595 216.698 237.216C216.311 237.466 215.877 237.635 215.423 237.714C214.969 237.794 214.504 237.781 214.055 237.678C213.557 237.611 213.054 237.591 212.553 237.619C211.503 237.768 210.473 238.033 209.482 238.408C208.485 238.741 207.471 239.021 206.444 239.247C206.001 239.352 205.549 239.411 205.093 239.423V239.423ZM216.455 225.217C215.775 225.989 211.101 231.225 209.129 232.618C204.623 235.79 203.961 236.813 203.885 237.065C203.885 237.149 203.905 237.231 203.943 237.305C203.981 237.38 204.036 237.444 204.103 237.493C204.263 237.627 204.783 237.904 206.109 237.627C207.076 237.397 208.031 237.117 208.97 236.788C210.089 236.376 211.252 236.095 212.436 235.949C213.038 235.917 213.642 235.94 214.24 236.016C214.995 236.092 215.381 236.117 215.7 235.882C216.085 235.152 216.338 234.359 216.447 233.541C216.54 232.724 216.809 231.936 217.235 231.233C218.395 230.133 219.622 229.108 220.911 228.162L217.613 224.495L216.455 225.217Z" fill="#001524"/>
<path d="M244.868 157.802H265.241C265.776 157.801 266.305 157.905 266.799 158.108C267.294 158.312 267.743 158.611 268.122 158.988C268.5 159.365 268.801 159.813 269.007 160.306C269.212 160.8 269.318 161.329 269.32 161.863V190.855H240.789V161.863C240.791 161.329 240.897 160.8 241.102 160.306C241.308 159.813 241.609 159.365 241.987 158.988C242.366 158.611 242.815 158.312 243.309 158.108C243.804 157.905 244.333 157.801 244.868 157.802Z" fill="#FFECD1"/>
<path d="M269.32 191.702H240.79C240.567 191.702 240.354 191.614 240.196 191.457C240.039 191.299 239.95 191.086 239.95 190.863V161.863C239.953 160.562 240.471 159.315 241.391 158.395C242.311 157.474 243.558 156.957 244.859 156.954H265.242C266.544 156.954 267.794 157.471 268.716 158.392C269.638 159.312 270.157 160.56 270.159 161.863V190.855C270.16 190.966 270.139 191.076 270.097 191.178C270.056 191.281 269.994 191.375 269.916 191.454C269.838 191.532 269.745 191.595 269.643 191.638C269.54 191.68 269.431 191.702 269.32 191.702ZM241.629 190.024H268.481V161.863C268.478 161.007 268.137 160.187 267.532 159.581C266.926 158.976 266.106 158.635 265.25 158.633H244.868C244.012 158.635 243.191 158.976 242.586 159.581C241.98 160.187 241.639 161.007 241.637 161.863L241.629 190.024Z" fill="#001524"/>
<path d="M269.32 128.29C277.425 128.29 283.996 121.719 283.996 113.614C283.996 105.508 277.425 98.9374 269.32 98.9374C261.214 98.9374 254.643 105.508 254.643 113.614C254.643 121.719 261.214 128.29 269.32 128.29Z" fill="#725858"/>
<path d="M269.32 129.137C266.251 129.137 263.252 128.228 260.701 126.523C258.149 124.819 256.161 122.396 254.986 119.561C253.811 116.727 253.504 113.608 254.102 110.598C254.7 107.589 256.177 104.824 258.346 102.654C260.515 100.484 263.278 99.0055 266.288 98.4059C269.297 97.8063 272.416 98.1124 275.251 99.2854C278.086 100.458 280.51 102.446 282.216 104.996C283.922 107.547 284.833 110.545 284.835 113.614C284.833 117.729 283.198 121.675 280.289 124.585C277.38 127.496 273.435 129.133 269.32 129.137V129.137ZM269.32 99.7682C266.583 99.7682 263.908 100.58 261.633 102.1C259.358 103.62 257.584 105.78 256.537 108.308C255.489 110.836 255.214 113.618 255.748 116.302C256.281 118.986 257.598 121.451 259.532 123.387C261.467 125.322 263.931 126.641 266.615 127.175C269.298 127.71 272.08 127.438 274.609 126.392C277.137 125.345 279.299 123.573 280.821 121.299C282.342 119.024 283.155 116.35 283.157 113.614C283.154 109.944 281.696 106.425 279.102 103.829C276.508 101.233 272.989 99.7727 269.32 99.7682Z" fill="#001524"/>
<path d="M255.634 108.596C251.621 108.316 247.612 109.19 244.079 111.113C235.067 116.148 233.347 127.518 234.437 136.866C234.681 138.947 234.572 141.9 235.461 143.797C237.03 147.153 241.864 149.394 245.119 150.627C251.832 153.145 259.712 153.279 265.946 149.713C277.593 143.042 280.06 126.435 271.468 116.324C269.474 114.048 267.048 112.193 264.329 110.866C261.61 109.539 258.654 108.767 255.634 108.596V108.596Z" fill="#725858"/>
<path d="M254.946 153.279C251.483 153.266 248.052 152.627 244.817 151.391C239.397 149.335 235.99 146.893 234.698 144.133C234.067 142.418 233.746 140.606 233.749 138.779C233.707 138.124 233.665 137.503 233.598 136.933C232.163 124.589 235.923 114.654 243.668 110.358C247.353 108.349 251.54 107.446 255.726 107.757V107.757C258.858 107.926 261.925 108.721 264.746 110.094C267.566 111.467 270.083 113.392 272.147 115.753C274.322 118.361 275.894 121.417 276.751 124.702C277.608 127.988 277.73 131.422 277.107 134.76C276.585 137.995 275.355 141.074 273.506 143.78C271.656 146.485 269.233 148.748 266.408 150.409C262.904 152.352 258.952 153.342 254.946 153.279V153.279ZM254.207 109.385C250.813 109.361 247.469 110.201 244.49 111.826C241.058 113.723 233.305 119.949 235.26 136.74C235.327 137.336 235.369 137.99 235.411 138.678C235.412 140.292 235.681 141.894 236.208 143.419C237.307 145.769 240.404 147.925 245.438 149.822C252.453 152.482 259.972 152.155 265.577 148.983C268.19 147.445 270.43 145.35 272.139 142.846C273.848 140.343 274.982 137.492 275.462 134.499C276.042 131.406 275.932 128.223 275.14 125.177C274.348 122.131 272.893 119.297 270.88 116.878C268.963 114.687 266.626 112.901 264.007 111.627C261.389 110.353 258.541 109.616 255.634 109.46C255.122 109.401 254.66 109.385 254.207 109.385Z" fill="#001524"/>
<path d="M255.323 163.206H254.392C253.693 163.206 253.023 162.928 252.529 162.434C252.034 161.94 251.757 161.27 251.757 160.571V156.988H257.958V160.571C257.958 161.27 257.68 161.94 257.186 162.434C256.692 162.928 256.022 163.206 255.323 163.206V163.206Z" fill="#FFC9B0"/>
<path d="M255.323 164.045H254.392C253.471 164.043 252.589 163.676 251.938 163.025C251.287 162.374 250.92 161.492 250.918 160.571V156.988C250.918 156.765 251.006 156.552 251.163 156.394C251.321 156.237 251.534 156.149 251.757 156.149H257.958C258.18 156.149 258.394 156.237 258.551 156.394C258.709 156.552 258.797 156.765 258.797 156.988V160.571C258.795 161.492 258.428 162.374 257.777 163.025C257.126 163.676 256.244 164.043 255.323 164.045V164.045ZM252.596 157.827V160.571C252.596 161.047 252.785 161.504 253.122 161.841C253.459 162.177 253.915 162.367 254.392 162.367H255.323C255.799 162.367 256.256 162.177 256.593 161.841C256.93 161.504 257.119 161.047 257.119 160.571V157.827H252.596Z" fill="#001524"/>
<path d="M266.551 140.835C266.551 143.713 269.253 146.037 272.575 146.037C275.898 146.037 278.6 142.203 278.6 139.324C278.6 136.446 275.907 135.624 272.575 135.624C269.244 135.624 266.551 137.957 266.551 140.835Z" fill="#FFC9B0"/>
<path d="M272.575 146.876C268.791 146.876 265.711 144.166 265.711 140.835C265.711 137.503 268.791 134.793 272.575 134.793C278.248 134.793 279.439 137.26 279.439 139.333C279.439 142.731 276.276 146.876 272.575 146.876ZM272.575 136.471C269.714 136.471 267.39 138.426 267.39 140.835C267.39 143.243 269.714 145.198 272.575 145.198C275.437 145.198 277.761 141.917 277.761 139.324C277.761 138.544 277.761 136.471 272.575 136.471Z" fill="#001524"/>
<path d="M231.433 139.333C231.433 142.203 234.135 146.046 237.458 146.046C240.781 146.046 243.483 143.721 243.483 140.843C243.483 137.965 240.79 135.641 237.458 135.641C234.127 135.641 231.433 136.455 231.433 139.333Z" fill="#FFC9B0"/>
<path d="M237.458 146.876C233.766 146.876 230.594 142.731 230.594 139.324C230.594 137.252 231.786 134.785 237.458 134.785C241.243 134.785 244.322 137.495 244.322 140.826C244.322 144.158 241.243 146.876 237.458 146.876ZM237.458 136.471C232.273 136.471 232.273 138.544 232.273 139.333C232.273 141.917 234.714 145.207 237.458 145.207C240.202 145.207 242.644 143.251 242.644 140.843C242.644 138.435 240.32 136.471 237.458 136.471Z" fill="#001524"/>
<path d="M254.887 157.802C257.276 157.798 259.641 157.325 261.847 156.407C264.053 155.49 266.056 154.147 267.743 152.456C269.43 150.764 270.767 148.757 271.679 146.548C272.59 144.34 273.057 141.973 273.054 139.584V131.143C273.054 126.771 266.341 118.556 262.019 118.556C262.019 118.556 261.306 122.701 254.467 126.318C249.667 128.835 242.896 131.604 236.737 127.317V139.551C236.73 141.941 237.194 144.309 238.103 146.52C239.011 148.73 240.346 150.741 242.032 152.435C243.717 154.13 245.72 155.476 247.926 156.397C250.131 157.318 252.497 157.795 254.887 157.802V157.802Z" fill="#FFC9B0"/>
<path d="M254.887 158.641C249.841 158.628 245.007 156.614 241.444 153.042C237.881 149.469 235.881 144.63 235.881 139.584V127.35C235.88 127.196 235.922 127.045 236.002 126.913C236.082 126.781 236.197 126.674 236.334 126.603C236.466 126.537 236.613 126.507 236.76 126.516C236.907 126.525 237.05 126.572 237.173 126.654C242.854 130.623 249.164 128.181 254.031 125.613C260.375 122.257 261.163 118.481 261.172 118.439C261.207 118.243 261.311 118.067 261.465 117.941C261.619 117.815 261.812 117.747 262.011 117.751C266.903 117.751 273.884 126.419 273.884 131.176V139.618C273.876 144.656 271.872 149.486 268.312 153.051C264.752 156.615 259.925 158.625 254.887 158.641ZM237.55 128.852V139.584C237.5 141.893 237.91 144.188 238.759 146.335C239.607 148.482 240.875 150.438 242.49 152.089C244.104 153.739 246.032 155.05 248.16 155.946C250.288 156.841 252.574 157.302 254.882 157.302C257.191 157.302 259.477 156.841 261.605 155.946C263.733 155.05 265.661 153.739 267.275 152.089C268.89 150.438 270.158 148.482 271.006 146.335C271.855 144.188 272.265 141.893 272.215 139.584V131.143C272.215 127.51 266.534 120.234 262.623 119.488C262.086 120.939 260.316 124.203 254.836 127.098C249.852 129.7 243.567 132.158 237.525 128.852H237.55Z" fill="#001524"/>
<path d="M242.208 135.339C241.763 135.339 241.336 135.162 241.021 134.847C240.706 134.532 240.53 134.105 240.53 133.66C240.53 133.215 240.706 132.788 241.021 132.474C241.336 132.159 241.763 131.982 242.208 131.982L250.23 131.923C250.675 131.923 251.102 132.1 251.416 132.415C251.731 132.73 251.908 133.156 251.908 133.602C251.908 134.047 251.731 134.473 251.416 134.788C251.102 135.103 250.675 135.28 250.23 135.28L242.208 135.339Z" fill="#001524"/>
<path d="M258.688 135.339C258.243 135.339 257.816 135.162 257.501 134.847C257.187 134.532 257.01 134.105 257.01 133.66C257.01 133.215 257.187 132.788 257.501 132.474C257.816 132.159 258.243 131.982 258.688 131.982L266.71 131.923C267.155 131.923 267.582 132.1 267.897 132.415C268.211 132.73 268.388 133.156 268.388 133.602C268.388 134.047 268.211 134.473 267.897 134.788C267.582 135.103 267.155 135.28 266.71 135.28L258.688 135.339Z" fill="#001524"/>
<path d="M254.66 145.022C254.172 145.028 253.684 144.974 253.209 144.863C253.025 144.821 252.853 144.737 252.707 144.618C252.562 144.499 252.446 144.347 252.37 144.174C251.849 143.016 253.049 140.398 253.804 138.938C253.911 138.747 254.088 138.604 254.298 138.542C254.508 138.479 254.734 138.501 254.928 138.603C255.122 138.705 255.269 138.879 255.336 139.087C255.404 139.296 255.387 139.522 255.29 139.719C254.67 140.845 254.207 142.05 253.913 143.302C254.621 143.366 255.335 143.341 256.036 143.226C256.259 143.187 256.488 143.238 256.673 143.368C256.858 143.498 256.983 143.696 257.022 143.919C257.061 144.141 257.01 144.37 256.88 144.555C256.751 144.74 256.553 144.866 256.33 144.904C255.777 144.986 255.219 145.025 254.66 145.022V145.022Z" fill="#001524"/>
<path d="M246.219 140.935C247.104 140.935 247.821 140.218 247.821 139.333C247.821 138.448 247.104 137.73 246.219 137.73C245.333 137.73 244.616 138.448 244.616 139.333C244.616 140.218 245.333 140.935 246.219 140.935Z" fill="#001524"/>
<path d="M262.103 140.935C262.988 140.935 263.706 140.218 263.706 139.333C263.706 138.448 262.988 137.73 262.103 137.73C261.218 137.73 260.5 138.448 260.5 139.333C260.5 140.218 261.218 140.935 262.103 140.935Z" fill="#001524"/>
<path d="M255.441 150.652C252.374 150.568 249.403 149.562 246.915 147.766C246.829 147.697 246.757 147.612 246.703 147.515C246.649 147.418 246.615 147.312 246.603 147.202C246.591 147.092 246.6 146.981 246.63 146.875C246.661 146.768 246.712 146.669 246.781 146.583C246.85 146.496 246.935 146.424 247.032 146.371C247.129 146.317 247.235 146.283 247.345 146.271C247.455 146.258 247.566 146.267 247.672 146.298C247.778 146.328 247.878 146.38 247.964 146.448C248.258 146.683 255.264 152.071 262.17 146.448C262.256 146.378 262.354 146.326 262.46 146.294C262.565 146.261 262.676 146.251 262.786 146.261C262.896 146.272 263.003 146.305 263.1 146.357C263.198 146.409 263.284 146.48 263.354 146.566C263.423 146.652 263.475 146.751 263.507 146.857C263.538 146.963 263.548 147.074 263.537 147.184C263.525 147.294 263.492 147.4 263.439 147.497C263.386 147.594 263.314 147.68 263.228 147.749C261.057 149.608 258.298 150.637 255.441 150.652Z" fill="#001524"/>
<path d="M240.798 190.863L213.577 225.208L221.49 230.797C221.49 230.797 251.245 202.099 254.643 201.621C258.042 201.142 279.767 208.258 279.767 208.258L279.221 229.119H287.831C287.831 229.119 296.356 206.11 293.008 202.762C289.66 199.414 269.294 190.863 269.294 190.863H240.798Z" fill="#FFECD1"/>
<path d="M221.49 231.636C221.316 231.637 221.146 231.585 221.003 231.485L213.09 225.888C212.998 225.822 212.92 225.739 212.861 225.642C212.801 225.545 212.762 225.438 212.746 225.326C212.729 225.214 212.736 225.099 212.765 224.99C212.794 224.88 212.844 224.777 212.914 224.688L240.135 190.343C240.214 190.243 240.315 190.162 240.43 190.107C240.545 190.052 240.671 190.023 240.798 190.024H269.328C269.441 190.024 269.552 190.047 269.655 190.091C270.495 190.444 290.206 198.742 293.638 202.166C297.07 205.59 290.105 225.485 288.653 229.412C288.593 229.573 288.485 229.711 288.344 229.809C288.203 229.906 288.036 229.958 287.864 229.958H279.221C278.999 229.958 278.785 229.869 278.628 229.712C278.471 229.555 278.382 229.341 278.382 229.119L278.894 208.879C270.209 206.06 257.077 202.166 254.736 202.477C252.395 202.787 233.414 220.451 222.01 231.418C221.867 231.548 221.683 231.625 221.49 231.636V231.636ZM214.777 225.032L221.398 229.714C227.381 223.958 251.128 201.268 254.518 200.79C257.908 200.312 277.778 206.731 280.019 207.503C280.194 207.56 280.345 207.673 280.45 207.824C280.555 207.976 280.607 208.158 280.598 208.342L280.102 228.338H287.26C290.675 218.999 294.435 205.422 292.429 203.416C289.912 200.899 276.184 194.723 269.144 191.761H241.201L214.777 225.032Z" fill="#001524"/>
<path d="M244.222 158.272L203.625 156.166C203.625 156.166 192.716 153.648 191.256 155.091C191.072 155.276 190.568 155.931 191.206 156.258C193.572 157.416 199.203 158.221 199.169 159.363C199.169 159.975 198.691 160.294 197.885 160.202C197.223 160.126 195.645 159.648 194.722 160.067C194.076 160.361 194.378 161.125 194.479 161.259C195.318 162.425 198.867 162.669 202.635 162.174L243.139 168.408H243.693C245.003 168.417 246.266 167.92 247.219 167.021C248.172 166.123 248.743 164.892 248.812 163.584C248.881 162.276 248.443 160.991 247.59 159.997C246.737 159.003 245.534 158.376 244.23 158.247L244.222 158.272Z" fill="#FFC9B0"/>
<path d="M243.684 169.273C243.469 169.285 243.254 169.285 243.038 169.273L202.626 163.055C200.755 163.29 195.192 163.801 193.782 161.771C193.646 161.553 193.555 161.31 193.513 161.057C193.472 160.803 193.48 160.544 193.539 160.294C193.598 160.082 193.704 159.886 193.849 159.72C193.994 159.554 194.175 159.424 194.378 159.337C195.382 159.031 196.454 159.031 197.457 159.337C197.667 159.337 197.843 159.413 197.978 159.421H198.045C196.983 159.002 195.896 158.652 194.789 158.372C193.439 158.043 192.117 157.605 190.837 157.063C190.639 156.975 190.466 156.839 190.333 156.668C190.2 156.496 190.11 156.295 190.073 156.082C190.05 155.798 190.091 155.513 190.193 155.247C190.294 154.981 190.454 154.742 190.661 154.546C192.246 152.968 200.277 154.588 203.734 155.385L244.263 157.483C245.773 157.644 247.163 158.378 248.148 159.533C249.133 160.688 249.637 162.177 249.558 163.693C249.478 165.209 248.821 166.636 247.72 167.682C246.62 168.728 245.161 169.312 243.643 169.314L243.684 169.273ZM202.635 161.334H202.761L243.257 167.569H243.684C244.773 167.571 245.822 167.155 246.613 166.408C247.405 165.66 247.88 164.637 247.94 163.55C248 162.463 247.641 161.394 246.937 160.563C246.233 159.733 245.237 159.204 244.154 159.086L203.575 156.979H203.432C198.666 155.88 192.96 155.15 191.953 155.654C193.052 156.067 194.172 156.42 195.309 156.711C198.196 157.55 200.109 158.045 200.075 159.388C200.073 159.619 200.022 159.847 199.927 160.058C199.831 160.269 199.693 160.458 199.522 160.613C199.288 160.799 199.017 160.932 198.728 161.004C198.438 161.077 198.137 161.086 197.843 161.032C197.676 161.032 197.449 160.974 197.197 160.923C196.554 160.756 195.885 160.71 195.225 160.789C195.227 160.803 195.227 160.817 195.225 160.831C195.586 161.343 198.196 161.913 202.559 161.343L202.635 161.334Z" fill="#001524"/>
<path d="M269.42 158.272L310.017 156.166C310.017 156.166 320.925 153.648 322.386 155.091C322.57 155.276 323.074 155.931 322.436 156.258C320.07 157.416 314.439 158.221 314.473 159.363C314.473 159.975 314.951 160.294 315.756 160.202C316.419 160.126 317.997 159.648 318.92 160.067C319.566 160.361 319.264 161.125 319.163 161.259C318.324 162.425 314.775 162.669 311.007 162.174L270.511 168.408H269.957C268.647 168.417 267.385 167.92 266.431 167.021C265.478 166.123 264.908 164.892 264.839 163.584C264.77 162.276 265.207 160.991 266.06 159.997C266.913 159.003 268.117 158.376 269.42 158.247V158.272Z" fill="#FFC9B0"/>
<path d="M269.991 169.273C268.472 169.272 267.011 168.69 265.909 167.645C264.807 166.6 264.148 165.172 264.067 163.655C263.987 162.139 264.491 160.649 265.476 159.493C266.461 158.337 267.851 157.602 269.361 157.441H269.412L309.933 155.343C313.399 154.546 321.429 152.926 323.006 154.504C323.213 154.7 323.374 154.939 323.477 155.205C323.58 155.47 323.623 155.756 323.602 156.04C323.565 156.253 323.476 156.454 323.343 156.626C323.21 156.797 323.036 156.933 322.839 157.021C321.558 157.563 320.237 158.001 318.886 158.33C317.78 158.61 316.692 158.961 315.631 159.379H315.698C315.832 159.379 316.008 159.329 316.21 159.295C317.216 158.989 318.291 158.989 319.298 159.295C319.5 159.382 319.681 159.513 319.826 159.678C319.971 159.844 320.077 160.04 320.137 160.252C320.196 160.502 320.205 160.762 320.161 161.016C320.118 161.27 320.024 161.512 319.885 161.729C318.484 163.76 312.92 163.248 311.049 163.013L270.671 169.231C270.445 169.256 270.218 169.27 269.991 169.273ZM269.521 159.111C268.399 159.235 267.373 159.801 266.668 160.682C265.963 161.563 265.637 162.688 265.762 163.81C265.886 164.932 266.451 165.958 267.333 166.663C268.214 167.368 269.339 167.694 270.461 167.569L310.915 161.343H311.108C315.446 161.905 318.047 161.343 318.458 160.789C317.798 160.714 317.13 160.76 316.486 160.923C316.235 160.974 316.008 161.016 315.84 161.032C315.547 161.086 315.245 161.077 314.956 161.004C314.666 160.932 314.396 160.799 314.162 160.613C313.99 160.458 313.852 160.269 313.757 160.058C313.662 159.847 313.611 159.619 313.608 159.388C313.608 158.045 315.488 157.508 318.375 156.711C319.512 156.419 320.632 156.066 321.731 155.654C320.724 155.1 315.018 155.872 310.201 156.979H310.059L269.521 159.111Z" fill="#001524"/>
<path d="M173.752 225.133C173.752 225.133 167.878 213.117 168.717 204.994C168.717 204.994 173.458 207.142 175.741 213.469C179.232 223.136 178.426 225.133 178.426 225.133H173.752Z" fill="#70CC40"/>
<path d="M178.384 225.98H173.752C173.595 225.981 173.441 225.937 173.307 225.854C173.174 225.771 173.066 225.652 172.997 225.51C172.754 225.015 167.006 213.184 167.845 204.927C167.857 204.794 167.901 204.666 167.972 204.554C168.044 204.442 168.141 204.348 168.256 204.281C168.374 204.22 168.505 204.189 168.638 204.189C168.771 204.189 168.901 204.22 169.02 204.281C169.229 204.373 174.113 206.647 176.488 213.234C179.911 222.725 179.316 225.116 179.165 225.494C179.096 225.642 178.986 225.767 178.847 225.853C178.708 225.94 178.548 225.984 178.384 225.98V225.98ZM174.281 224.302H177.637C177.637 223.236 177.293 220.35 174.91 213.763C173.891 210.812 171.979 208.252 169.439 206.437C169.364 213.226 173.299 222.171 174.281 224.294V224.302Z" fill="#001524"/>
<path d="M176.555 224.554C176.555 224.554 172.133 207.419 178.493 195.957C178.493 195.957 182.152 200.152 183.033 210.289C183.492 215.117 182.573 219.976 180.381 224.302L176.555 224.554Z" fill="#70CC40"/>
<path d="M176.555 225.393C176.364 225.399 176.177 225.34 176.025 225.225C175.872 225.111 175.763 224.948 175.716 224.764C175.531 224.05 171.285 207.142 177.73 195.545C177.795 195.427 177.888 195.327 178 195.252C178.113 195.178 178.242 195.132 178.376 195.117C178.51 195.103 178.646 195.122 178.772 195.172C178.897 195.221 179.009 195.301 179.097 195.403C179.257 195.579 182.949 199.917 183.838 210.213C184.327 215.213 183.372 220.248 181.086 224.722C181.016 224.84 180.919 224.939 180.802 225.011C180.685 225.082 180.552 225.124 180.415 225.133L176.58 225.393H176.555ZM178.594 197.593C174.021 207.293 176.521 220.551 177.209 223.673L179.861 223.496C181.788 219.403 182.593 214.871 182.194 210.364C181.598 203.458 179.668 199.38 178.594 197.593V197.593Z" fill="#001524"/>
<path d="M178.468 224.017C178.468 224.017 179.836 212.58 189.083 205.12C189.083 205.12 191.802 213.637 184.166 225.024L178.468 224.017Z" fill="#70CC40"/>
<path d="M184.166 225.863H184.023L178.317 224.848C178.106 224.81 177.918 224.694 177.79 224.523C177.662 224.351 177.604 224.137 177.629 223.924C177.688 223.446 179.148 212.059 188.537 204.474C188.643 204.388 188.768 204.33 188.902 204.303C189.036 204.277 189.174 204.283 189.304 204.322C189.435 204.361 189.554 204.431 189.651 204.526C189.749 204.621 189.821 204.739 189.863 204.868C189.981 205.237 192.624 213.905 184.829 225.502C184.754 225.61 184.655 225.699 184.54 225.761C184.425 225.824 184.297 225.859 184.166 225.863ZM179.425 223.345L183.771 224.109C189.083 215.936 188.923 209.366 188.546 206.689C181.883 212.672 179.911 220.803 179.425 223.337V223.345Z" fill="#001524"/>
<path d="M182.84 236.855H175.12C174.581 236.855 174.061 236.658 173.658 236.301C173.254 235.944 172.995 235.452 172.93 234.917L171.445 222.708H186.549L185.064 234.917C184.997 235.457 184.734 235.954 184.323 236.312C183.913 236.67 183.384 236.863 182.84 236.855V236.855Z" fill="#FFBC0E"/>
<path d="M182.84 237.694H175.12C174.376 237.696 173.657 237.424 173.101 236.93C172.544 236.437 172.187 235.756 172.099 235.018L170.605 222.808C170.591 222.689 170.602 222.569 170.638 222.454C170.675 222.34 170.735 222.235 170.815 222.145C170.895 222.057 170.992 221.987 171.1 221.94C171.209 221.892 171.326 221.868 171.445 221.869H186.549C186.667 221.868 186.785 221.892 186.893 221.94C187.002 221.987 187.099 222.057 187.178 222.145C187.257 222.235 187.316 222.341 187.35 222.455C187.385 222.569 187.395 222.69 187.379 222.808L185.894 235.018C185.803 235.761 185.442 236.446 184.878 236.939C184.315 237.433 183.589 237.702 182.84 237.694V237.694ZM172.393 223.547L173.761 234.816C173.8 235.148 173.96 235.455 174.211 235.676C174.462 235.897 174.785 236.018 175.12 236.016H182.84C183.174 236.017 183.497 235.895 183.747 235.674C183.997 235.453 184.158 235.148 184.199 234.816L185.567 223.547H172.393Z" fill="#001524"/>
<path d="M319.298 207.31C320.691 207.31 322.027 207.863 323.012 208.848C323.997 209.834 324.551 211.17 324.551 212.563V233.188C324.551 233.544 324.409 233.886 324.157 234.138C323.906 234.389 323.564 234.531 323.208 234.531H315.387C315.031 234.531 314.69 234.389 314.438 234.138C314.186 233.886 314.045 233.544 314.045 233.188V212.563C314.045 211.17 314.598 209.834 315.583 208.848C316.568 207.863 317.905 207.31 319.298 207.31Z" fill="#F56132"/>
<path d="M323.216 235.345H315.387C315.101 235.346 314.818 235.291 314.553 235.182C314.288 235.073 314.048 234.913 313.845 234.711C313.642 234.509 313.482 234.269 313.372 234.005C313.262 233.741 313.206 233.458 313.206 233.172V212.563C313.264 210.985 313.932 209.492 315.069 208.396C316.206 207.301 317.723 206.689 319.302 206.689C320.881 206.689 322.398 207.301 323.535 208.396C324.672 209.492 325.34 210.985 325.398 212.563V233.188C325.392 233.763 325.159 234.311 324.75 234.715C324.342 235.119 323.791 235.345 323.216 235.345ZM319.298 208.149C318.128 208.151 317.006 208.617 316.179 209.444C315.352 210.271 314.886 211.393 314.884 212.563V233.188C314.886 233.32 314.94 233.446 315.034 233.539C315.129 233.632 315.255 233.683 315.387 233.683H323.216C323.348 233.683 323.475 233.632 323.569 233.539C323.664 233.446 323.718 233.32 323.72 233.188V212.563C323.718 211.391 323.251 210.269 322.422 209.441C321.593 208.614 320.469 208.149 319.298 208.149Z" fill="#001524"/>
<path d="M321.924 204.39H316.537V208.015H321.924V204.39Z" fill="#FFECD1"/>
<path d="M321.924 208.854H316.537C316.314 208.854 316.101 208.765 315.944 208.608C315.786 208.451 315.698 208.237 315.698 208.015V204.39C315.698 204.167 315.786 203.954 315.944 203.796C316.101 203.639 316.314 203.551 316.537 203.551H321.924C322.147 203.551 322.36 203.639 322.517 203.796C322.675 203.954 322.763 204.167 322.763 204.39V208.015C322.763 208.237 322.675 208.451 322.517 208.608C322.36 208.765 322.147 208.854 321.924 208.854ZM317.376 207.176H321.085V205.229H317.376V207.176Z" fill="#001524"/>
</svg>
